<?xml version='1.0' encoding='utf-8'?>
<svg xmlns="http://www.w3.org/2000/svg" width="217.07mm" height="264.13mm" version="1.1" viewBox="0 0 217.07 264.13"> <g transform="translate(-253.64 -33.864)"> <path d="m449.52 206.72c0.25475 7.2554 2.9296 17.056-3.4391 22.403-5.9866 5.0915-15.412 2.2912-22.291 1.6547-0.76425-0.12729-2.038-0.12729-3.057 0 1.4011-0.76372 2.6749-1.782 3.8212-3.0549 5.095-5.6006 2.1654-11.583-2.9296-15.274 0-0.63643 0-1.4002-0.12737-2.0366 2.4201-0.25458 4.7129-0.63644 7.133-1.0183 6.2414-1.0183 4.5855-10.947-1.4011-10.819-3.057 0-6.114 0.12728-9.0436 0.12728 1.4011-2.2912 1.2738-5.6006-0.38213-7.8918 2.2928-12.856 3.1844-25.967 2.038-38.95-0.5095-5.0915-0.25475-12.347-5.3497-15.402-5.2224-3.1822-14.521-1.6547-20.507-1.782-30.188-0.76372-60.376-1.782-90.691-2.673-3.3118-0.12729-7.0056 3.1822-6.6235 6.6189 1.5285 11.838 2.9296 23.675 4.5855 35.386 0.76425 5.6006 1.6559 11.201 2.6749 16.802 0.63688 4.0732 0.89163 9.5465 4.3308 12.347-1.6559 0-3.3118 0.12728-4.9676 0.50914-2.8022 0.63644-4.7129 4.0732-3.8212 6.7462 0.63688 2.1639 2.038 3.564 3.6939 4.5823-1.9106 0.89101-2.8022 3.9459-0.38212 5.2188-1.4011 0.38186-2.5475 1.4002-2.5475 3.1822 0 1.2729 0.25475 2.5457 0.63688 3.6913-1.1464 0.38186-2.8022 0.25457-3.9486 0.25457-3.4391-0.12728-7.0056-0.76372-10.445-1.0183-1.4011-0.12729-3.057-0.38187-4.3307 0.38186-1.6559 1.0183-1.9106 3.1822-2.8022 4.8369-4.9676 2.5458-7.2604 0.25458-5.9866 7.1281 0 0.12729 0.38212 0.12729 0.38212 0 0-4.5823 3.3118-3.6913 6.114-4.3278 0.38212-0.25457 0.89162-0.63644 1.2738-1.0183 1.2738-1.6547 3.1844-2.5457 5.8592-2.4184 1.7832 0.12728 3.5665 1.0183 5.3498 1.1456 3.057 0.25457 7.2604-0.38186 9.4257-2.5457 1.4011 2.673 3.5665 4.9642 6.114 6.4916h-0.25475c-7.133-0.50915-2.4201 2.1639-6.6235 5.8552-0.25475 0.25458 0 0.89101 0.38212 0.76373 2.2928-0.76373 0.63688-0.12729 2.5475-1.6547 0.5095-0.38186 0.12738-1.6547 0.5095-1.9093 2.6749-1.9093 8.7889 0.89101 12.101 0.50914 3.5665-0.38186 6.6235-2.1639 9.171-4.5823 0.89162-0.63644 1.7832-1.2729 2.5475-2.0366 1.2738 0.76372 2.6749 1.2729 4.076 1.5274 2.1654 2.2912 5.2224 3.4368 8.7889 3.6913 3.3118 0.25457 6.7509-0.12729 10.063-0.89101 1.7832-0.50915 3.5665-1.0183 5.2224-1.782 1.7832-0.76372 2.4201-1.1456 3.6939-0.89101 2.4201 0.50915 4.4581 2.2912 7.133 2.5458 2.5475 0.38186 5.2224 0.12729 7.7699-0.63644 2.6749-0.76372 5.2224-2.2912 7.2604-4.2005 0.89162-0.89101 1.7832-1.9093 2.4201-2.9276 0-0.12729 0.12738-0.12729 0.12738-0.25458h0.12737c2.6749 1.2729 5.095 3.1822 8.6615 3.0549 1.019 0 1.9106-0.12729 2.8022-0.38186 0.12738 0.12728 0.25475 0.38186 0.38213 0.50914 0.12737 0.12729 0.25475 0.38187 0.38212 0.50915 0.12738 0.12729 0.25475 0.25458 0.38213 0.50915l0.25475 0.25458c0.12737 0.12728 0.25475 0.12728 0.38212 0.25457l0.25475 0.25458c1.1464 0.89101 3.4391 2.1639 4.8402 1.2729 1.5285 0.50915 3.057 0.63643 4.7129 0.25457 0.63687-0.12729 0.63687-1.1456 0-1.2729-2.1654-0.50915-4.3308-0.63644-6.3688-1.9093-0.25475-0.12729-0.5095-0.38186-0.76425-0.63643-0.12737-0.50915-0.38212-1.0183-0.38212-1.5274l0.76425-0.38186c4.8402 2.673 10.827 3.6913 16.177 2.1639-0.12738 0.12729-0.25475 0.38186-0.38213 0.63644-1.4011 3.0549 4.076 4.5823 1.7832 7.8918-0.5095 0.76373 0.5095 1.4002 1.1464 0.89101 1.2738-1.0183 2.038-2.0366 2.038-3.6913 0-0.89101-1.5285-2.8003-1.5285-3.1822 0.25475-2.4184 8.9162-0.12728 10.954 0.12729 2.8022 0.25458 5.7319 0.12729 8.5341-0.38186 4.2034-0.89101 9.8079-2.8003 11.973-6.8735 2.8022-5.6006 0.25475-14.893-0.89162-20.748-0.38212-0.89101-1.5285-0.76373-1.5285 0zm21.144-9.0374c-0.12737-0.76373-1.1464-1.0183-1.4011-0.12729-5.3498 1.6547-7.8972 0.50915-7.5151-3.0549-0.12737-0.76373-0.25475-1.4002-0.5095-2.1639-0.25475-0.63643-0.63687-1.2729-1.1464-1.782-0.89163-1.0183-2.1654-1.4002-3.1844-2.2912-0.63688-0.38186-1.2738-0.76372-1.9106-1.0183-2.6749-3.0549-3.4391-6.2371-2.038-9.4193 1.2738-5.0915 5.4771-11.201-0.38212-15.02-0.63688-0.38186-1.1464 0.50915-0.76425 1.0183 5.2224 5.9825-3.8212 13.874-2.1654 20.621 0.38212 1.782 1.2738 3.0549 2.5475 4.2005 0.76425 0.76373 1.7832 1.0183 2.5475 1.6547 2.6749 2.1639 3.4391 4.7096 4.3308 7.8918 0.76425 2.9276 2.038 5.7279 5.7319 5.8552 3.9486 0.12728 6.2414-2.9276 5.8592-6.3644z" fill="#591c02" stroke-width=".4948"/> <path d="m330.81 152.25s6.114 47.987 12.737 71.026c0 0-8.152 11.201-18.469 15.147-36.557 14.256-44.581 14.256-50.44 19.348-3.057 2.673 0.25475 14.129 2.2928 21.893 1.6559 6.3644 2.1654 16.802 2.1654 16.802h168.39s2.038-42.005-0.76425-50.66c-2.8022-8.6555-9.0436-3.6913-27.895-5.7279-18.851-2.0366-36.557-13.111-39.486-16.802l0.38212-76.372z" fill="#cb8d60" stroke-width=".4948"/> <path d="m340.75 211.94c8.4067 4.455 13.629 4.455 13.629 4.455s10.19 0 24.965-12.092l0.25475-57.534-48.912 5.3461c0.12737 0.12729 4.5855 35.259 10.063 59.825z" fill="#ac642f" stroke-width=".4948"/> <path d="m323.55 250.51s18.597-0.25457 25.984 3.3095c7.3878 3.6913 16.177 3.0549 20.507-1.2729 4.3308-4.3278 27.513-8.9101 27.513-8.9101s-25.093 2.4184-31.844 5.8552c-6.7509 3.4368-28.405-3.564-42.161 1.0183z" fill="#ac642f" stroke-width=".4948"/> <path d="m326.22 237.91c8.5341-1.6547 18.724-8.1464 18.724-8.1464l7.8972 7.0008c-5.4771-10.056-16.177-52.315-16.177-52.315l-0.89162 0.89101c2.1654 13.365 4.9676 27.876 7.7699 37.804 0 0-7.6425 10.438-17.323 14.765z" fill="#ac642f" stroke-width=".4948"/> <path d="m449.14 257.38c-0.12738-2.673-0.25475-5.2188-0.5095-7.8918-0.12738-1.2729-0.38213-2.673-0.76425-4.0732-0.25475-0.63644-0.5095-1.2729-0.76425-2.0366-0.25475-0.63643-0.76425-1.2729-1.2738-1.9093-0.5095-0.63643-1.1464-1.1456-1.9106-1.4002-0.76425-0.38186-1.4011-0.50914-2.1654-0.76372-1.4011-0.25457-2.8022-0.25457-4.076-0.25457-2.6749 0-5.2224 0.12728-7.7699 0.12728s-5.095-0.12728-7.6425-0.25457-5.095-0.50915-7.6425-0.89101c-1.2738-0.25458-2.5475-0.50915-3.6939-0.76372l-1.9106-0.50915c-0.63688-0.12729-1.2738-0.38186-1.7832-0.50915-4.8402-1.4002-9.6805-3.3095-14.266-5.6006l-3.3118-1.782c-0.5095-0.25457-1.1464-0.63644-1.6559-1.0183s-1.1464-0.63643-1.6559-1.0183-1.019-0.63644-1.6559-1.0183l-1.5285-1.1456-0.76425-0.63643-0.76424-0.50915c-0.25475-0.25458-0.5095-0.38186-0.63688-0.63644l-0.25475-0.38186v-56.77l-0.12737-19.093v-0.76372l-0.76425 0.12728c-8.152 1.0183-16.431 1.9093-24.583 2.9276l-24.329 2.9276v0.63644l0.12737 0.50915 0.12738 1.1456 0.25475 2.2912c0.12737 1.5274 0.38212 2.9276 0.5095 4.4551l1.1464 8.9101c0.76425 5.9825 1.6559 11.965 2.6749 17.82 1.019 5.9825 1.9106 11.838 3.1844 17.82 1.1464 5.7279 2.2928 11.456 3.8212 17.184-1.4011 1.782-2.9296 3.4368-4.5855 5.0915s-3.5665 3.3095-5.4771 4.8369c-1.9106 1.4002-3.9486 2.8003-6.114 3.8186l-1.6559 0.76372c-0.5095 0.25457-1.1464 0.38186-1.6559 0.63643l-3.4391 1.2729c-9.171 3.4368-18.469 6.7462-27.768 9.8011l-7.0056 2.2912c-2.2928 0.76372-4.7129 1.6547-7.0056 2.8003-0.5095 0.25457-1.1464 0.63643-1.6559 0.89101-0.5095 0.38186-1.1464 0.63644-1.6559 1.1456l-0.76425 0.63644c-0.25475 0.25457-0.63687 0.63644-0.76425 1.0183-0.38212 0.63643-0.5095 1.4002-0.63687 2.0366-0.25475 1.4002-0.12738 2.673 0 3.9459 0.12737 1.2729 0.38212 2.5457 0.5095 3.6913 0.5095 2.4185 1.019 4.8369 1.6559 7.2554l1.019 3.564c0.38213 1.1456 0.63688 2.2912 0.89163 3.564 0.5095 2.4185 0.89162 4.8369 1.1464 7.2554s0.5095 4.8369 0.63687 7.2554v1.0183h169.92v-1.0183c0.25475-5.2188 0.5095-10.438 0.63687-15.656 0.12738-5.2188 0.25475-10.438 0.25475-15.656 0-2.2912-0.12737-4.8369-0.12737-7.51zm-85.851 38.568h-42.161l-21.017-0.12728-20.38-0.12729c-0.12737-2.2912-0.25475-4.455-0.5095-6.7462-0.25475-2.4185-0.5095-4.9642-1.019-7.3827-0.25474-1.2729-0.50949-2.4185-0.89162-3.6913l-0.89162-3.564c-0.63688-2.4185-1.1464-4.7096-1.5285-7.1281-0.25475-1.1456-0.38213-2.4185-0.5095-3.564-0.12738-1.1456-0.12738-2.4185 0-3.4368 0.12737-0.50915 0.25475-1.0183 0.5095-1.4002 0.12737-0.25457 0.25475-0.38186 0.38212-0.50915l0.63688-0.50915c0.38212-0.38186 0.89162-0.63643 1.4011-1.0183 0.5095-0.25458 1.019-0.63644 1.5285-0.89101 2.1654-1.0183 4.4581-1.782 6.7509-2.5458l7.0056-2.2912c9.2984-3.0549 18.597-6.3644 27.768-9.9284l3.4391-1.2729c0.63687-0.25458 1.1464-0.38186 1.7832-0.63644l1.7832-0.76372c2.2928-1.1456 4.3308-2.5457 6.3688-4.0732s3.8212-3.1822 5.6045-4.9642 3.4391-3.6913 4.8402-5.7279l0.25475-0.38186-0.12738-0.38186c-1.6559-5.7279-2.9296-11.583-4.2034-17.438-1.2738-5.8552-2.4201-11.838-3.4391-17.693-1.019-5.8552-2.038-11.838-3.057-17.82l-2.8022-17.693 24.583-2.2912c7.8972-0.76373 15.667-1.5274 23.564-2.2912l-0.25475 18.329-0.25475 19.093-0.38212 38.186v0.50915l0.25475 0.25458 0.76425 0.89101 0.76425 0.76372 0.38212 0.38186 0.38213 0.25458 0.76425 0.63643c0.5095 0.38186 1.1464 0.76373 1.6559 1.1456s1.1464 0.76372 1.6559 1.1456 1.1464 0.63644 1.6559 1.0183 1.1464 0.63644 1.6559 1.0183l1.7832 1.0183 1.7832 0.89101c0.63687 0.25458 1.1464 0.63644 1.7832 0.89102l1.7832 0.89101c1.2738 0.50914 2.4201 1.0183 3.6939 1.5274 1.2737 0.50915 2.4201 1.0183 3.6939 1.4002l1.9106 0.63644c0.63688 0.25457 1.2738 0.38186 1.9106 0.50915 0.63688 0.12728 1.2738 0.38186 1.9106 0.50914l1.9106 0.50915c1.2738 0.38187 2.5475 0.50915 3.8212 0.76373 2.5475 0.50915 5.2224 0.76372 7.8972 1.0183 2.6749 0.25458 5.2224 0.25458 7.8972 0.25458 2.6749 0 5.2224-0.12729 7.7699-0.12729s5.095 0.12729 6.3688 1.6547c0.63687 0.76372 1.1464 1.782 1.5285 2.9276 0.38212 1.1456 0.50949 2.4185 0.76424 3.564 0.38213 2.5458 0.5095 5.0915 0.63688 7.6372 0.12737 2.5458 0.12737 5.2188 0.25475 7.7645 0.12737 10.056-0.12738 20.111-0.5095 30.167-13.756 0.12729-27.386 0.12729-41.142 0.25457z" fill="#9d521b" stroke-width=".4948"/> <path d="m423.67 296.46-4.7129-26.985-0.5095 26.985z" fill="#ac642f" stroke-width=".4948"/> <path d="m291.96 276.48s2.8022 14.638 3.6939 19.984h4.4581z" fill="#ac642f" stroke-width=".4948"/> <path d="m341.13 213.85c-1.6559 2.8003-8.5341 12.601-8.5341 12.601l-0.5095 3.564s-6.3687 4.455-17.832 9.292c-11.591 4.8369-39.486 14.002-41.652 15.656-2.1654 1.6547-2.4201 10.947-1.1464 15.02 1.2737 4.0732 4.9676 13.238 4.9676 26.476h172.98s1.2738-17.693 1.4011-24.057c0.12738-6.3644-0.12737-27.876-3.1844-31.949-2.9296-4.0732-5.6045-2.8003-14.266-2.8003s-22.673-2.4185-31.971-4.8369c-9.2984-2.4184-10.445-5.6006-10.445-5.6006l-1.1464-3.3095-9.2984-10.183s0.38213 12.856-0.5095 17.82c-0.89162 4.9642-13.502 10.183-13.629 11.71-0.63688 9.0374-2.5475 10.438-2.5475 10.438s-0.25475-8.0191-6.7509-10.183c-2.4201-0.89101-7.133-2.673-8.5341-4.9642-1.5285-2.4185-4.3307-10.947-4.5855-13.874-0.25475-3.0549-2.8022-10.819-2.8022-10.819z" fill="#1d282e" stroke-width=".4948"/> <path d="m451.94 266.55c0-4.9642-0.25474-10.056-0.63687-15.02-0.25475-2.5457-0.5095-4.9642-1.019-7.5099-0.25475-1.2729-0.5095-2.5458-1.4011-3.9459-0.5095-0.63643-0.89163-1.1456-1.4011-1.6547s-1.1464-1.0183-1.7832-1.2729c-1.4011-0.76373-2.9296-0.76373-4.2034-0.76373s-2.5475 0-3.8212 0.12729c-2.4201 0.12729-4.9676 0.12729-7.3878 0-4.9676-0.25457-9.8079-0.89101-14.775-1.782-4.8402-0.89101-9.8079-1.782-14.521-3.0549-2.2928-0.63644-4.5855-1.4002-6.6235-2.673-1.019-0.50915-1.9106-1.4002-2.2927-2.0366l-1.1464-3.3095-0.12737-0.25457-0.12738-0.12729-9.2984-10.183-2.1654-2.4185 0.12738 3.1822c0.12737 3.9459 0.12737 7.7645 0 11.71-0.12738 1.9093-0.12738 3.9459-0.38213 5.7279-0.12737 1.5274-1.5285 2.8003-2.9296 4.0732-1.4011 1.1456-3.057 2.2912-4.7129 3.3095-1.6559 1.1456-3.3118 1.9093-4.9676 3.3095-0.25475 0.25458-0.38213 0.38186-0.76425 0.89101 0 0.12729-0.12738 0.12729-0.12738 0.25458v0.76372c0 0.50915-0.12737 1.0183-0.12737 1.4002-0.12738 1.0183-0.25475 1.9093-0.38213 2.8003-0.12737 0.89101-0.38212 1.9093-0.63687 2.8003 0 0.12728-0.12737 0.12728-0.12737 0.25457-0.25475-1.2729-0.76425-2.4185-1.4011-3.564-1.019-1.9093-2.6749-3.564-4.7129-4.3278-1.019-0.38186-1.9106-0.63643-2.9296-1.0183l-2.6749-1.1456c-0.89163-0.38186-1.6559-1.0183-2.4201-1.5274-0.76425-0.63643-1.1464-1.2729-1.6559-2.2912-0.89162-1.782-1.5285-3.6913-2.2928-5.6006-0.63687-1.9093-1.2738-3.8186-1.6559-5.8552-0.12738-0.89101-0.25475-2.0366-0.5095-3.0549s-0.5095-2.0366-0.76425-2.9276-0.5095-1.9093-0.89163-2.9276l-0.5095-1.4002-0.25474-0.76372-0.12738-0.38186-0.12737-0.12729v-0.12729c0-0.12728-0.12738-0.12728-0.12738-0.12728-0.25475 0.25457-0.5095 0.63643-0.63687 0.89101l-1.5285 2.2912-2.1654 3.0549-4.4581 6.2371v0.25458l-0.5095 3.3095c-7.5151 4.7096-15.54 8.2737-23.946 11.329-8.4067 3.0549-16.813 5.8552-25.348 8.9101-2.1654 0.76372-4.2034 1.5274-6.3687 2.2912-1.019 0.38186-2.1654 0.76372-3.1844 1.2729-0.25475 0.12729-0.5095 0.25458-0.89162 0.50915s-0.63687 0.50915-0.89162 0.89101c-0.38213 0.63644-0.63688 1.1456-0.89163 1.782-0.63687 2.4185-0.76425 4.7096-0.89162 7.0008 0 2.2912 0.12737 4.5823 0.89162 7.0008 1.4011 4.3278 2.8022 8.401 3.5665 12.729 0.89162 4.3278 1.2738 8.6555 1.2738 13.111v1.1456h1.019c14.393 0 28.787-0.25457 43.18-0.38186 14.393-0.25458 28.787-0.25458 43.18-0.25458s28.787 0.12729 43.18 0.25458l43.18 0.38186h1.019l0.12737-1.0183 1.1464-14.893c0.5095-5.4734 0.89162-10.565 0.76424-15.529zm-74.769-29.785c0.76425-0.63644 1.5285-1.4002 2.2928-2.1639 0.38213-0.38186 0.63688-0.89101 0.89163-1.4002 0.25475-0.50914 0.5095-1.1456 0.5095-1.6547 0.38212-2.0366 0.38212-3.9459 0.5095-5.9825 0.12737-2.9276 0.12737-5.7279 0.12737-8.6555l7.0056 7.7645 0.5095 1.5274 0.25475 0.89101 0.12737 0.50915 0.12738 0.25457c0.12737 0.25458 0.12737 0.25458 0.25475 0.38186 0.38212 0.63644 0.89162 1.1456 1.2738 1.5274 0.25475 1.4002 0.5095 2.673 0.63687 3.9459 0.38213 3.0549 0.76425 6.1098 1.4011 9.0374 0.5095 3.0549 1.019 5.9825 1.7832 9.0374 0.38213 1.5274 0.63688 3.0549 1.2738 4.5823l0.38213 1.1456c-2.2928-1.4002-4.4581-2.9276-6.4961-4.5823-0.38213-0.25457-0.63688-0.50915-1.019-0.89101l-1.019-0.89101-2.1654-1.9093-4.2034-3.6913c-1.4011-1.2729-2.8022-2.4184-4.2034-3.6913l-0.5095-0.50914c-0.12737-0.12729-0.25475-0.25458-0.63687-0.50915-0.63687-0.50915-1.2738-0.50915-1.7832-0.63644-0.89162 0-1.6559 0-2.4201 0.25458h0.12737c1.6559-1.2729 3.3118-2.4185 4.9676-3.6913zm-10.063 6.6189zm-0.63688 4.9642c0.25475-1.0183 0.38213-2.0366 0.38213-2.9276 0.12737-0.50915 0.12737-1.0183 0.12737-1.5274v-0.38186l0.25475-0.25458c0.38213-0.25457 0.76425-0.50915 1.1464-0.89101 0.12737-0.12728 0.38212-0.12728 0.5095-0.12728 0.89162-0.25458 1.7832-0.38187 2.6749-0.63644 0.89162-0.12729 1.7832-0.12729 2.5475-0.12729 0.38212 0.12729 0.76425 0.12729 0.89162 0.25458l0.38213 0.38186 0.5095 0.50915c0.76424 0.76372 1.5285 1.6547 2.4201 2.4184-2.1654 1.0183-4.2034 1.9093-6.3688 2.673-1.1464 0.50914-2.4201 0.89101-3.5665 1.1456-0.76425 0.25457-1.5285 0.38186-2.2928 0.63644 0.25475-0.12729 0.38212-0.63644 0.38212-1.1456zm-33.5-21.639 4.2034-6.2371 2.038-3.1822 1.019-1.6547 0.5095-0.76372c0.12737-0.25458 0.25475-0.38186 0.25475-0.63644v0.12729l0.12737 0.38186 0.25475 0.76372 0.38212 1.4002c0.25475 1.0183 0.5095 1.9093 0.76425 2.9276s0.5095 2.0366 0.63688 2.9276c0.25475 1.0183 0.25475 1.9093 0.38212 3.0549 0.38213 2.0366 0.89163 3.9459 1.5285 5.9825 0.63688 1.9093 1.2738 3.9459 2.1654 5.7279 0.38212 0.89101 1.019 2.0366 1.7832 2.673 0.76425 0.76372 1.6559 1.2729 2.6749 1.782 0.89162 0.50915 1.9106 0.89101 2.8022 1.2729 0.89163 0.38187 2.038 0.76373 2.8022 1.1456 2.4201 1.0183 3.9486 3.3095 4.7129 5.7279-3.057-0.89101-6.114-1.5274-9.2984-2.2912-2.9296-0.63643-5.8592-1.1456-8.9162-1.5274 0.38213-0.76373 0.89163-1.6547 1.4011-2.4185 0.38212-0.50915 0.63687-1.1456 1.1464-1.4002 0.38213-0.38186 1.019-0.50915 1.5285-0.63644 1.2738-0.12728 2.5475 0 3.8212 0.25458-1.2738-0.50915-2.5475-0.89101-3.9486-1.0183-0.63687 0-1.5285 0.12729-2.1654 0.50915-0.63687 0.50915-1.019 1.0183-1.5285 1.5274-1.6559 2.1639-2.9296 4.455-4.4581 6.6189l-1.1464 1.5274c-0.38213 0.38186-0.76425 0.89101-1.2738 1.2729-0.89163 0.76372-1.9106 1.5274-3.057 2.2912l-4.2034 2.673c0.38212-1.782 0.76425-3.564 1.019-5.3461 0.5095-2.673 0.76425-5.6006 0.89162-8.401 0.12738-2.8003 0.25475-5.6006 0.25475-8.2737 0-1.4002 0-2.8003-0.12737-4.2005 0-0.25458 0-0.50915-0.12738-0.89101l0.12738-0.12729v-0.12729zm-33.754 68.862c-0.38212-3.6913-1.019-7.5099-1.7832-11.201-0.38212-2.0366-0.89162-4.0732-1.4011-6.1098-0.25475-1.0183-0.63687-2.0366-1.019-3.0549-0.38212-1.0183-1.019-2.0366-1.5285-2.9276-2.5475-3.4368-5.4771-6.4916-8.6615-9.1647-1.5285-1.4002-3.1844-2.673-4.9676-3.8186s-3.5665-2.1639-5.6045-2.8003c3.4391 2.1639 6.3688 5.0915 9.171 8.0191 1.4011 1.4002 2.8022 2.9276 4.076 4.455s2.6749 3.0549 3.6939 4.7096c0.5095 0.76373 1.019 1.5274 1.4011 2.4185 0.38212 0.89101 0.63687 1.9093 1.019 2.8003 0.63687 1.9093 1.2738 3.9459 1.7832 5.8552 1.019 3.564 2.1654 7.1281 3.4391 10.692-7.133-0.12729-14.393-0.12729-21.526-0.12729 0-4.2005-0.5095-8.401-1.2738-12.474-0.38212-2.2912-1.019-4.455-1.5285-6.6189-0.63687-2.1639-1.4011-4.3278-2.1654-6.3644-0.63687-1.9093-0.76425-4.0732-0.89162-6.2371 0-2.1639 0.12737-4.3278 0.63687-6.2371 0.12738-0.50915 0.38212-0.89101 0.5095-1.2729 0.12737-0.12729 0.12737-0.25457 0.25475-0.25457 0.12737-0.12729 0.38212-0.25458 0.63687-0.25458 1.019-0.50915 2.038-0.89101 3.057-1.2729 2.038-0.76372 4.2034-1.5274 6.2414-2.4185 8.4067-3.0549 16.813-5.9825 25.22-9.292 4.2034-1.6547 8.2794-3.3095 12.355-5.3461 3.8212-1.9093 7.5151-3.9459 11.082-6.3644v0.50914c-0.12738 1.4002-0.25475 2.673-0.5095 4.0732l-1.5285 12.22c-0.25475 1.2729-0.5095 2.673-0.76425 3.9459-0.5095 2.673-1.1464 5.3461-1.6559 8.1464l-0.63688 2.8003 2.4201-1.4002c2.2927-1.4002 4.5855-2.673 6.7509-4.3278 1.019-0.76372 2.1654-1.6547 3.1844-2.673 0.5095-0.50915 1.019-1.0183 1.4011-1.6547 0.38213-0.63644 0.76425-1.1456 1.019-1.782 0.89162-1.4002 1.5285-2.9276 2.2928-4.3278 2.8022 1.1456 5.7319 2.0366 8.6615 2.673 3.1844 0.63644 6.3688 1.1456 9.5531 1.0183 0.38212 1.1456 0.63687 2.4185 0.63687 3.564v1.0183l-0.12737 0.12729c-0.63688 0.76372-1.2738 1.5274-1.9106 2.4185l-1.019 1.1456c-0.12737 0.25457-0.25474 0.25457-0.50949 0.63644-0.25475 0.25457-0.38213 0.50915-0.5095 0.89101-0.38213 1.1456-0.5095 2.2912-0.5095 3.3095v3.0549c0 2.0366 0.12737 4.0732 0.25475 6.1098 0.12737 4.0732 0.38212 8.1464 0.63687 12.22 0.25475 3.9459 0.76425 7.7645 1.4011 11.583-13.756 0-27.386-0.12729-41.142-0.25458-5.9866-0.25457-12.865-0.25457-19.616-0.38186zm149.92-14.129-0.76425 14.002-21.908 0.25457c1.019-4.7096 1.7832-9.4192 2.5475-14.256 0.76425-4.8369 1.5285-9.8011 2.2928-14.638 0.38213-2.4185 0.89163-4.8369 1.6559-7.0008 0.76425-2.2912 1.9106-4.3278 3.1844-6.4916 1.2738-2.0366 2.6749-4.0732 4.3307-5.8552 1.5285-1.9093 3.3118-3.6913 5.2224-5.2188-2.1654 1.1456-4.2034 2.673-6.114 4.455-1.7832 1.6547-3.5665 3.564-5.095 5.6006s-2.8022 4.3278-3.8212 6.6189c-0.5095 1.1456-0.89163 2.4185-1.1464 3.6913s-0.5095 2.4185-0.76425 3.6913c-0.76424 4.9642-1.4011 9.9284-1.7832 14.765-0.38213 4.8369-0.63688 9.6738-0.63688 14.511l-20.253 0.12729c-14.393 0.12729-28.787 0.12729-43.18 0.25457h-2.038c0.38212-3.9459 0.5095-7.7645 0.63687-11.71 0-4.0732 0-8.1464-0.25475-12.22-0.12737-2.0366-0.25475-4.0732-0.5095-6.1098-0.12737-2.0366-0.5095-4.0732-0.12737-5.7279 0-0.25457 0.12737-0.38186 0.12737-0.50915 0-0.12728 0.25475-0.38186 0.38213-0.50915l0.89162-1.2729c0.5095-0.89101 1.1464-1.782 1.6559-2.673 0.12737-0.25457 0.25475-0.63644 0.5095-0.89101l0.12737-0.12729c0.25475-0.25457 0.25475-0.25457 0.38213-0.50915 0.12737-0.12728 0.12737-0.25457 0.25474-0.38186l0.38213-0.76372c0.25475-0.50915 0.38212-1.0183 0.5095-1.4002 0.12737-0.38186 0.25475-0.76372 0.25475-1.0183 0.89162 0 1.7832 0 2.6749-0.12728 1.2738-0.12729 2.6749-0.50915 3.8212-1.0183 1.1464-0.50915 2.4201-1.0183 3.5665-1.782 0.89162-0.50915 1.7832-1.1456 2.5475-1.9093 0.5095 0.50915 1.019 0.89101 1.4011 1.4002l6.114 5.7279 1.019 1.0183c0.38213 0.38186 0.76425 0.63644 1.1464 1.0183 3.057 2.4184 6.114 4.455 9.4258 6.4916l2.2927 1.4002-0.38212-2.5457c-0.25475-1.782-0.76425-3.3095-1.4011-4.7096-0.5095-1.2729-0.89163-2.673-1.2738-4.2005-0.76425-2.9276-1.4011-5.8552-2.1654-8.7828-0.63687-2.9276-1.4011-5.8552-2.038-8.9101l-0.76425-3.0549c0.38212 0.25458 0.63687 0.50915 1.019 0.63644 2.2927 1.4002 4.8402 2.1639 7.2604 2.9276 4.8402 1.2729 9.8079 2.2912 14.775 3.1822s9.9352 1.5274 15.03 1.782c2.5475 0.12729 5.095 0.12729 7.6425 0 1.2738 0 2.5475-0.12728 3.6939-0.12728s2.2928 0.12728 3.057 0.50915c0.38213 0.12728 0.76425 0.50915 1.1464 0.89101 0.38212 0.38186 0.76424 0.89101 1.019 1.1456 0.5095 0.76372 0.76425 2.0366 1.019 3.0549 0.5095 2.2912 0.76425 4.8369 1.1464 7.2554 0.5095 4.9642 0.76425 9.9284 0.76425 14.893 0 5.2188-0.25475 10.183-0.5095 15.147zm-85.469-20.748c1.019 0 1.7832 0.76372 1.7832 1.782s-0.76424 1.782-1.7832 1.782-1.7832-0.76372-1.7832-1.782 0.76425-1.782 1.7832-1.782zm5.6045-16.929c0.76425 0 1.4011 0.63644 1.4011 1.4002s-0.63687 1.4002-1.4011 1.4002-1.4011-0.63644-1.4011-1.4002 0.63687-1.4002 1.4011-1.4002zm-4.8402 38.95c0.89162 0 1.6559 0.76372 1.6559 1.6547s-0.76425 1.6547-1.6559 1.6547c-0.89163 0-1.6559-0.76372-1.6559-1.6547s0.89163-1.6547 1.6559-1.6547z" fill="#070c0f" stroke-width=".4948"/> <g transform="matrix(1.2737 0 0 1.2729 231.71 17.448)"> <path d="m64.41 94.17s-2.58-5.02-4.51-7.21-6.82-5.79-7.98-5.54-6.31 14.04-6.82 16.1c-0.52 2.06 6.18 8.63 6.82 9.79s0.52 3.99 0.39 4.76 5.15 2.83 7.85 2.19c2.71-0.65 10.05-9.54 4.25-20.09z" fill="#cb8d60" stroke-width=".3886"/> <path d="m64.03 100.6s-5.92-8.11-9.91-10.82c-3.99-2.7-5.67 7.73-5.41 8.76s4.64 6.31 6.31 7.08 7.33-0.64 9.01-5.02z" fill="#bc7746" stroke-width=".3886"/> <path d="m45.09 97.02c-0.06 0.22-0.14 0.41-0.16 0.67 0 0.24 0.03 0.48 0.11 0.7 0.29 0.87 0.78 1.62 1.26 2.35 0.49 0.73 1.03 1.43 1.58 2.12 1.09 1.38 2.25 2.71 3.34 4.05 0.13 0.17 0.27 0.34 0.36 0.49s0.15 0.33 0.21 0.52c0.11 0.38 0.16 0.8 0.19 1.22 0.06 0.84 0.05 1.71-0.04 2.55l-0.04 0.31c-0.02 0.4 0.16 0.52 0.24 0.63 0.21 0.22 0.41 0.34 0.61 0.47 0.41 0.25 0.82 0.44 1.24 0.61 0.84 0.35 1.69 0.62 2.57 0.82s1.78 0.33 2.72 0.29c0.47-0.02 0.95-0.08 1.43-0.3 0.26-0.08 0.43-0.23 0.64-0.35s0.39-0.27 0.57-0.42c2.81-2.39 4.39-5.88 4.78-9.42 0.13-0.89 0.07-1.78 0.07-2.67-0.12-0.88-0.17-1.77-0.43-2.62-0.36-1.73-1.1-3.35-1.9-4.91-0.79-1.57-1.65-3.09-2.54-4.6-0.45-0.76-0.92-1.5-1.44-2.22-0.53-0.72-1.15-1.36-1.79-1.97a28.138 28.138 0 0 0-4.17-3.28c-0.38-0.24-0.76-0.48-1.18-0.67-0.2-0.1-0.43-0.18-0.65-0.27-0.24-0.06-0.49-0.15-0.87-0.07-0.46 0.23-0.48 0.42-0.65 0.62-0.13 0.2-0.25 0.39-0.36 0.59-0.22 0.39-0.42 0.79-0.61 1.19-1.46 3.22-2.59 6.54-3.8 9.83l-0.87 2.48zm0.13 0.69c0.01-0.17 0.09-0.4 0.14-0.6l0.4-1.25c0.28-0.83 0.59-1.65 0.9-2.47 0.61-1.64 1.28-3.26 1.97-4.86s1.41-3.2 2.19-4.75c0.19-0.39 0.39-0.77 0.6-1.14 0.11-0.18 0.22-0.36 0.33-0.53 0.06-0.09 0.12-0.15 0.17-0.23 0.03-0.04 0.08-0.07 0.09-0.08 0.03 0 0.08 0 0.14 0.01 0.09 0.02 0.17 0.04 0.26 0.07 0.18 0.07 0.37 0.14 0.56 0.24 0.37 0.18 0.75 0.39 1.12 0.6 1.47 0.89 2.86 1.95 4.2 3.05 0.66 0.56 1.3 1.14 1.85 1.8s1.06 1.38 1.55 2.1c0.97 1.45 1.83 2.98 2.66 4.52 1.61 3.08 2.43 6.67 1.76 10.07-0.3 1.69-0.84 3.33-1.65 4.84-0.81 1.49-1.83 2.91-3.12 3.96-0.16 0.14-0.32 0.26-0.49 0.36-0.17 0.09-0.34 0.24-0.51 0.28-0.31 0.16-0.72 0.21-1.12 0.22-0.81 0.03-1.66-0.09-2.49-0.26-0.83-0.18-1.65-0.42-2.44-0.73a9.77 9.77 0 0 1-1.13-0.53c-0.17-0.1-0.34-0.22-0.44-0.31l-0.03-0.03 0.03-0.26c0.07-0.91 0.08-1.8-0.01-2.7a7.4 7.4 0 0 0-0.26-1.36c-0.08-0.23-0.16-0.46-0.31-0.69a5 5 0 0 0-0.43-0.55c-1.16-1.35-2.37-2.59-3.51-3.92-0.57-0.66-1.12-1.33-1.64-2.03-0.51-0.7-1.01-1.43-1.28-2.23-0.03-0.22-0.06-0.42-0.06-0.61z" fill="#bc7746" stroke-width=".3886"/> <path d="m50.5 92.01c0.34-0.68 0.71-1.4 1.37-1.89 0.31-0.25 0.82-0.37 1.21-0.16 0.39 0.19 0.65 0.53 0.87 0.83 0.92 1.24 1.7 2.57 2.38 3.94 1.31 2.76 2.4 5.61 3.21 8.56l-0.08 0.03c-1.35-2.74-2.56-5.51-3.83-8.25-0.62-1.37-1.2-2.78-1.98-4.06-0.19-0.33-0.41-0.61-0.7-0.78-0.29-0.16-0.64-0.09-0.93 0.11-0.56 0.44-0.91 1.14-1.21 1.81-0.55 1.39-0.85 2.89-0.94 4.35-0.02 0.36-0.02 0.73 0.04 1.06 0.02 0.17 0.06 0.31 0.11 0.43 0.09 0.16 0.16 0.32 0.26 0.47 0.37 0.63 0.8 1.24 1.25 1.84s0.9 1.2 1.38 1.78l0.71 0.87c0.06 0.07 0.12 0.13 0.18 0.2 0.2-0.53 0.34-1.18 0.48-1.78l0.43-2.13c-0.6-0.94-1.19-1.89-1.75-2.86l0.07-0.05c0.75 0.89 1.48 1.79 2.19 2.7l0.06 0.07-0.01 0.12a29.5 29.5 0 0 1-0.27 2.28c-0.14 0.77-0.2 1.49-0.53 2.33-0.04 0.07-0.05 0.11-0.12 0.2-0.03 0.04-0.05 0.07-0.13 0.13-0.03 0.03-0.07 0.05-0.1 0.07-0.06 0.03-0.14 0.05-0.21 0.05-0.13 0.02-0.29-0.07-0.35-0.11l-0.07-0.06a0.769 0.769 0 0 1-0.13-0.12c-0.15-0.15-0.28-0.29-0.41-0.43-0.26-0.29-0.51-0.58-0.76-0.88-0.48-0.6-0.96-1.2-1.39-1.84-0.44-0.63-0.86-1.28-1.24-1.97-0.1-0.17-0.18-0.36-0.27-0.54-0.09-0.24-0.14-0.46-0.16-0.67-0.04-0.42-0.01-0.82 0.03-1.21 0.18-1.57 0.68-3.04 1.34-4.44z" fill="#9d521b" stroke-width=".3886"/> <path d="m135.59 94.17s2.58-5.02 4.51-7.21 6.82-5.79 7.98-5.54 6.31 14.04 6.82 16.1c0.52 2.06-6.18 8.63-6.82 9.79s-0.52 3.99-0.39 4.76-5.15 2.83-7.85 2.19c-2.71-0.65-10.05-9.54-4.25-20.09z" fill="#cb8d60" stroke-width=".3886"/> <path d="m135.97 100.6s5.92-8.11 9.91-10.82c3.99-2.7 5.67 7.73 5.41 8.76s-4.64 6.31-6.31 7.08-7.33-0.64-9.01-5.02z" fill="#bc7746" stroke-width=".3886"/> <path d="m154.49 95.77-0.87-2.48c-1.22-3.29-2.34-6.61-3.8-9.83-0.19-0.4-0.39-0.8-0.61-1.19-0.11-0.2-0.22-0.39-0.36-0.59-0.17-0.2-0.19-0.39-0.65-0.62-0.38-0.08-0.63 0.01-0.87 0.07-0.23 0.08-0.45 0.16-0.65 0.27-0.42 0.19-0.8 0.43-1.18 0.67-1.5 0.97-2.89 2.06-4.17 3.28-0.64 0.61-1.26 1.25-1.79 1.97-0.53 0.71-0.99 1.46-1.44 2.22-0.89 1.51-1.76 3.04-2.54 4.6-0.8 1.56-1.54 3.17-1.9 4.91-0.26 0.85-0.3 1.74-0.43 2.62 0 0.89-0.06 1.78 0.07 2.67 0.38 3.54 1.96 7.03 4.78 9.42 0.17 0.15 0.36 0.3 0.57 0.42s0.38 0.27 0.64 0.35c0.49 0.23 0.96 0.28 1.43 0.3 0.94 0.04 1.84-0.09 2.72-0.29s1.74-0.47 2.57-0.82c0.42-0.18 0.83-0.37 1.24-0.61 0.2-0.13 0.4-0.25 0.61-0.47 0.08-0.12 0.26-0.23 0.24-0.63l-0.04-0.31c-0.09-0.84-0.09-1.71-0.04-2.55 0.03-0.42 0.09-0.84 0.19-1.22 0.06-0.19 0.12-0.37 0.21-0.52 0.1-0.15 0.23-0.33 0.36-0.49 1.1-1.34 2.26-2.67 3.34-4.05 0.55-0.69 1.08-1.39 1.58-2.12 0.49-0.74 0.97-1.48 1.26-2.35 0.07-0.22 0.11-0.45 0.11-0.7-0.02-0.27-0.1-0.45-0.16-0.67zm0.19 2.53c-0.27 0.8-0.77 1.53-1.28 2.23s-1.07 1.37-1.64 2.03c-1.14 1.33-2.36 2.57-3.51 3.92-0.14 0.17-0.29 0.34-0.43 0.55-0.14 0.23-0.23 0.46-0.31 0.69a7.4 7.4 0 0 0-0.26 1.36c-0.09 0.9-0.09 1.79-0.01 2.7l0.03 0.26c-0.01 0.01-0.01 0.02-0.03 0.03-0.1 0.1-0.27 0.22-0.44 0.31-0.35 0.2-0.73 0.38-1.13 0.53-0.79 0.31-1.61 0.55-2.44 0.73-0.83 0.17-1.67 0.29-2.49 0.26-0.4-0.01-0.81-0.07-1.12-0.22-0.17-0.04-0.34-0.18-0.51-0.28-0.17-0.09-0.33-0.22-0.49-0.36-1.29-1.05-2.31-2.47-3.12-3.96-0.81-1.5-1.35-3.15-1.65-4.84-0.67-3.4 0.14-6.99 1.76-10.07 0.83-1.54 1.69-3.07 2.66-4.52 0.49-0.72 1-1.43 1.55-2.1 0.55-0.66 1.19-1.24 1.85-1.8 1.34-1.1 2.73-2.16 4.2-3.05 0.37-0.22 0.74-0.43 1.12-0.6 0.19-0.1 0.37-0.17 0.56-0.24 0.09-0.03 0.17-0.04 0.26-0.07 0.07-0.01 0.11-0.01 0.14-0.01 0.01 0.01 0.06 0.05 0.09 0.08 0.06 0.08 0.12 0.14 0.17 0.23 0.12 0.16 0.22 0.35 0.33 0.53 0.21 0.37 0.41 0.75 0.6 1.14 0.78 1.55 1.5 3.15 2.19 4.75 0.7 1.6 1.36 3.22 1.97 4.86 0.31 0.82 0.62 1.64 0.9 2.47l0.4 1.25c0.06 0.2 0.13 0.43 0.14 0.6 0.04 0.21 0.01 0.41-0.06 0.61z" fill="#bc7746" stroke-width=".3886"/> <path d="m149.5 92.01c-0.34-0.68-0.71-1.4-1.37-1.89-0.31-0.25-0.82-0.37-1.21-0.16-0.39 0.19-0.65 0.53-0.87 0.83-0.92 1.24-1.7 2.57-2.38 3.94-1.31 2.76-2.4 5.61-3.21 8.56l0.08 0.03c1.35-2.74 2.56-5.51 3.83-8.25 0.62-1.37 1.2-2.78 1.98-4.06 0.19-0.33 0.41-0.61 0.7-0.78 0.29-0.16 0.64-0.09 0.93 0.11 0.56 0.44 0.91 1.14 1.21 1.81 0.55 1.39 0.85 2.89 0.94 4.35 0.02 0.36 0.01 0.73-0.04 1.06-0.02 0.17-0.06 0.31-0.11 0.43-0.09 0.16-0.16 0.32-0.26 0.47-0.37 0.63-0.8 1.24-1.25 1.84s-0.9 1.2-1.38 1.78l-0.71 0.87c-0.06 0.07-0.12 0.13-0.18 0.2-0.2-0.53-0.34-1.18-0.48-1.78l-0.43-2.13c0.6-0.94 1.19-1.89 1.75-2.86l-0.07-0.05c-0.75 0.89-1.48 1.79-2.19 2.7l-0.06 0.07 0.01 0.12c0.06 0.76 0.15 1.52 0.27 2.28 0.14 0.77 0.2 1.49 0.53 2.33 0.04 0.07 0.05 0.11 0.12 0.2 0.03 0.04 0.05 0.07 0.13 0.13 0.03 0.03 0.07 0.05 0.1 0.07 0.06 0.03 0.14 0.05 0.21 0.05 0.13 0.02 0.29-0.07 0.35-0.11l0.07-0.06c0.05-0.04 0.1-0.08 0.13-0.12 0.15-0.15 0.28-0.29 0.41-0.43 0.26-0.29 0.51-0.58 0.76-0.88 0.48-0.6 0.96-1.2 1.39-1.84 0.44-0.63 0.86-1.28 1.24-1.97 0.1-0.17 0.18-0.36 0.27-0.54 0.09-0.24 0.14-0.46 0.16-0.67 0.04-0.42 0.01-0.82-0.03-1.21-0.18-1.57-0.68-3.04-1.34-4.44z" fill="#9d521b" stroke-width=".3886"/> <path d="m135.9 49.8c-6.7-7.4-11.3-13.2-28.8-17.3-1.8-0.4-12.3-0.4-14.1 0-17.5 4.1-22.1 9.9-28.8 17.3-7.1 7.8-9.5 29-9.5 29 0 9.6 1.3 32.3 13.3 47.2 17.8 22.2 32.1 22.3 32.1 22.3s14.2 0 32.1-22.3c12-14.9 13.3-37.6 13.3-47.2-0.1 0-2.5-21.2-9.6-29z" fill="#cb8d60" stroke-width=".3886"/> <path d="m107.1 32.5c-1.8-0.4-12.3-0.4-14.1 0-17.5 4.1-22.1 9.9-28.8 17.3-7.1 7.8-9.5 29-9.5 29 0 9.6 1.3 32.3 13.3 47.2 17.8 22.2 32.1 22.3 32.1 22.3s14.2 0 32.1-22.3c12-14.9 13.3-37.6 13.3-47.2 0 0-2.4-21.2-9.5-29-6.9-7.4-11.5-13.2-28.9-17.3zm34.9 31.3c0.7 2.5 1.1 5 1.6 7.5 0.4 2.5 0.7 5 1 7.5-0.2 7.4-1.3 14.8-3 22-0.9 3.6-1.9 7.1-3.3 10.5-0.7 1.7-1.4 3.4-2.2 5s-1.7 3.2-2.7 4.7l-1.5 2.2c-0.3 0.4-3.4 4.2-3.4 4.2l-3.7 4.1-6.1 5.7c-2.8 2.3-5.8 4.5-9 6.2l-2.4 1.2c-0.8 0.4-1.6 0.7-2.5 1l-1.3 0.4c-0.4 0.1-0.8 0.2-1.3 0.3-0.4 0.1-1.71 0.43-2.9 0.4 0 0-1.4-0.2-1.9-0.3-0.4-0.1-0.9-0.2-1.3-0.3l-1.3-0.4c-0.8-0.3-1.7-0.6-2.5-1l-1.2-0.5-1.2-0.6c-3.2-1.6-6.3-3.7-9.1-6l-4.1-3.6-4.9-4.9-0.9-1-1.8-2.1c-1.2-1.4-2.3-2.8-3.3-4.4-1-1.5-2-3.1-2.8-4.8-0.8-1.6-1.6-3.3-2.3-5.1-0.7-1.7-1.3-3.5-1.8-5.3s-1-3.6-1.4-5.4-0.8-3.6-1-5.5c-0.3-1.8-0.5-3.7-0.7-5.5-0.4-3.7-0.5-7.4-0.5-11.1 0.3-2.3 0.8-4.6 1.2-6.9 0.5-2.3 1.1-4.6 1.7-6.8 0.7-2.2 1.4-4.5 2.3-6.6 0.4-1.1 0.9-2.1 1.4-3.1s2.59-4.47 6.3-8.1c1.6-1.7 3.3-3.3 5-4.7 3.5-2.8 7.7-4.9 12-6.5l1.6-0.6c6.69-2.31 10.6-2.2 11.8-2.3 2.3-0.1 4.71-0.26 7-0.1 3.16 0.22 6.8 1.4 6.8 1.4 2.3 0.6 4.5 1.3 6.7 2.3 0.3 0.1 1.6 0.7 1.6 0.7 0.5 0.3 2.6 1.3 3.1 1.7 0.5 0.3 5.3 3.7 6.9 5.4 1.7 1.7 3.3 3.4 4.9 5.2 1.7 1.9 2.9 4.2 3.9 6.6 1.1 2.4 1.9 4.8 2.5 7.3z" fill="#9d521b" stroke-width=".3886"/> <path d="m86.3 122.77s3.78 5.21 6.46 6.76c2.69 1.54 6.74 2.85 11.37 1.48s9.37-6.41 9.37-6.41-5.48-2.85-7.85-3.27-6 1.66-6 1.66-2.47-1.96-3.95-2.2-9.4 1.98-9.4 1.98z" fill="#d13713" stroke-width=".3886"/> <path d="m84.89 122.33c2.54 0.48 5.06 1.07 7.57 1.72 1.26 0.32 2.5 0.67 3.76 1.04 0.65 0.2 1.19 0.39 1.81 0.47 0.61 0.09 1.23 0.12 1.86 0.11 1.25 0.01 2.52-0.11 3.77-0.31 0.31-0.05 0.62-0.1 0.94-0.16s0.65-0.12 0.97-0.16c0.64-0.1 1.29-0.17 1.93-0.24 1.29-0.13 2.58-0.21 3.87-0.25 1.29 0.02 2.55-0.09 3.83-0.34-1.21 0.49-2.52 0.76-3.79 0.89-1.27 0.17-2.54 0.36-3.81 0.57l-1.89 0.34c-0.31 0.06-0.62 0.13-0.93 0.2l-0.96 0.21c-1.29 0.24-2.59 0.37-3.91 0.38-0.66-0.01-1.32-0.04-1.99-0.15-0.66-0.09-1.36-0.32-1.94-0.53l-3.69-1.21c-2.49-0.82-4.95-1.65-7.4-2.58z" fill="#c22500" stroke-width=".3886"/> <path d="m80.2 77.2c7.5 0 13.5 5.8 13.5 13s-6 13-13.5 13-13.5-5.8-13.5-13 6-13 13.5-13z" fill="#fff" stroke-width=".3886"/> <path d="m119.8 77.2c7.5 0 13.5 5.8 13.5 13s-6 13-13.5 13-13.5-5.8-13.5-13 6-13 13.5-13z" fill="#fff" stroke-width=".3886"/> <g stroke-width=".62338"> <g stroke-width=".3886"> <path d="m119.8 85.5c2.6 0 4.7 2.1 4.7 4.7s-2.1 4.7-4.7 4.7-4.7-2.1-4.7-4.7 2.1-4.7 4.7-4.7z" fill="#681711"/> <path d="m119.8 95.1c-2.7 0-4.9-2.2-4.9-4.9s2.2-4.9 4.9-4.9 4.9 2.2 4.9 4.9-2.2 4.9-4.9 4.9zm0-9.3c-2.4 0-4.4 2-4.4 4.4s2 4.4 4.4 4.4 4.4-2 4.4-4.4-2-4.4-4.4-4.4z" fill="#490500"/> <path d="m124.2 90.2c-0.6 0-1.2-0.1-1.8 0 0-0.2 0-0.5-0.1-0.7 0.7-0.1 1.3-0.3 2-0.5 0.2-0.1 0.1-0.3-0.1-0.3-0.7 0.1-1.3 0.3-2 0.6 0-0.1-0.1-0.2-0.1-0.3 0.3-0.1 0.5-0.2 0.8-0.3s0.7-0.2 1-0.4c0.1-0.1 0.1-0.2-0.1-0.2-0.6 0.1-1.3 0.4-1.8 0.8 0-0.1-0.1-0.1-0.1-0.2 0.2-0.1 0.4-0.3 0.6-0.4 0.3-0.2 0.6-0.4 0.9-0.7 0.1-0.1 0-0.3-0.2-0.2-0.3 0.2-0.6 0.5-0.9 0.7-0.2 0.1-0.4 0.3-0.6 0.4l-0.3-0.3c0.4-0.5 0.8-1.1 1.1-1.7 0-0.1-0.1-0.2-0.1-0.1-0.4 0.5-0.9 1.1-1.2 1.6-0.1-0.1-0.2-0.1-0.3-0.2 0.2-0.7 0.2-1.4 0.2-2 0-0.1-0.2-0.2-0.3 0-0.1 0.5-0.1 1-0.2 1.5 0 0.1-0.1 0.3-0.1 0.4-0.2-0.1-0.3-0.1-0.5-0.1 0-0.7-0.1-1.3-0.2-1.9 0-0.1-0.1 0-0.1 0-0.1 0.6-0.1 1.3-0.1 1.9h-0.4c0-0.2-0.1-0.3-0.1-0.5-0.1-0.4-0.1-0.8-0.2-1.3 0-0.1-0.2-0.1-0.2 0-0.1 0.5 0 1.2 0.2 1.8-0.1 0-0.1 0-0.2 0.1-0.2-0.6-0.4-1.3-0.6-1.9 0-0.1-0.2-0.1-0.2 0 0.1 0.6 0.3 1.3 0.5 1.9h-0.1c-0.3-0.6-0.8-1.2-1.2-1.7-0.1-0.1-0.2 0-0.1 0.1 0.3 0.6 0.7 1.2 1.1 1.7-0.1 0-0.2 0.1-0.2 0.1-0.1-0.1-0.2-0.2-0.3-0.4-0.3-0.4-0.6-0.8-1-1.1-0.1-0.1-0.2 0-0.1 0.1 0.2 0.4 0.5 0.7 0.8 1.1 0.1 0.2 0.2 0.3 0.4 0.5l-0.3 0.3c-0.5-0.4-1.1-0.8-1.6-1.1-0.1 0-0.1 0-0.1 0.1l1.5 1.2c-0.1 0.1-0.2 0.3-0.2 0.4-0.1 0-0.2-0.1-0.3-0.1-0.5-0.2-1-0.4-1.6-0.6-0.1 0-0.2 0.2-0.1 0.2 0.4 0.2 0.9 0.4 1.4 0.6 0.1 0.1 0.3 0.1 0.4 0.2 0 0.1 0 0.2-0.1 0.2-0.2 0-0.3 0-0.4-0.1-0.5-0.1-1-0.2-1.4-0.1-0.1 0-0.1 0.1 0 0.2 0.5 0.2 1.2 0.3 1.9 0.3v0.4c-0.3 0.1-0.5 0.2-0.8 0.3s-0.7 0.2-1 0.4c-0.1 0.1-0.1 0.2 0.1 0.2 0.4 0 0.8-0.2 1.2-0.4l0.6-0.3c0 0.1 0.1 0.3 0.1 0.4-0.1 0.1-0.2 0.1-0.3 0.2-0.4 0.3-0.9 0.6-1.3 0.9-0.1 0.1 0 0.2 0.1 0.2 0.5-0.2 0.9-0.6 1.4-0.9 0.1 0 0.1-0.1 0.2-0.1 0.1 0.1 0.1 0.2 0.2 0.3-0.5 0.4-0.9 0.9-1.3 1.4-0.1 0.1 0 0.2 0.1 0.1 0.5-0.4 1-0.8 1.4-1.3l0.3 0.3c-0.1 0.2-0.3 0.3-0.4 0.5-0.3 0.4-0.6 0.8-0.8 1.2-0.1 0.1 0.1 0.2 0.2 0.1 0.3-0.3 0.6-0.7 0.9-1.1 0.1-0.2 0.3-0.3 0.4-0.5 0.1 0 0.1 0.1 0.1 0.1-0.1 0.1-0.1 0.3-0.2 0.4-0.2 0.4-0.4 0.8-0.6 1.3 0 0.1 0.1 0.2 0.2 0.1 0.3-0.4 0.5-0.8 0.7-1.3 0.1-0.1 0.1-0.2 0.2-0.3h0.1c-0.3 0.6-0.5 1.3-0.5 1.9 0 0.1 0.1 0.1 0.2 0 0.2-0.6 0.4-1.2 0.7-1.8h0.3c-0.2 0.6-0.2 1.4-0.2 2 0 0.2 0.3 0.2 0.3 0 0-0.7 0.2-1.3 0.2-2h0.2c-0.1 0.6-0.1 1.3 0 1.9 0 0.2 0.3 0.2 0.3 0-0.1-0.6 0-1.3-0.1-1.9 0.2 0 0.4-0.1 0.6-0.1 0.1 0.3 0.2 0.6 0.4 0.9 0.1 0.3 0.2 0.7 0.5 0.9 0.1 0 0.1 0 0.1-0.1 0-0.3-0.2-0.6-0.3-0.9s-0.3-0.6-0.4-0.9c0.1 0 0.1-0.1 0.2-0.1 0.1 0.3 0.3 0.5 0.4 0.8 0.2 0.3 0.3 0.7 0.6 0.9 0.1 0.1 0.2 0 0.2-0.1-0.1-0.3-0.3-0.7-0.5-0.9s-0.3-0.5-0.5-0.7c0.1-0.1 0.2-0.1 0.3-0.2 0.3 0.6 0.7 1.1 1.1 1.5 0.1 0.1 0.3-0.1 0.2-0.2-0.4-0.5-0.8-0.9-1.2-1.4 0.2-0.2 0.3-0.3 0.4-0.5 0.5 0.4 1 0.8 1.6 1.1 0.1 0.1 0.2-0.1 0.2-0.2-0.5-0.4-1-0.8-1.6-1.1 0-0.1 0.1-0.1 0.1-0.2 0.5 0.3 1.2 0.6 1.7 0.8 0.1 0.1 0.2-0.2 0.1-0.2-0.5-0.3-1.1-0.6-1.7-0.8 0.1-0.2 0.1-0.4 0.2-0.7 0.6 0.1 1.2 0.1 1.8 0.1 0 0.4 0 0-0.3 0z" fill="#490500"/> <path d="m119.8 87.7c1.4 0 2.5 1.1 2.5 2.5s-1.1 2.5-2.5 2.5-2.5-1.1-2.5-2.5 1.1-2.5 2.5-2.5z"/> <path d="m118.4 88c0.5 0 1 0.4 1 1s-0.4 1-1 1-1-0.4-1-1 0.4-1 1-1zm3.1 3.6c0.3 0 0.5 0.2 0.5 0.5s-0.2 0.5-0.5 0.5-0.5-0.2-0.5-0.5 0.2-0.5 0.5-0.5z" fill="#fff"/> </g> </g> </g> <g transform="matrix(1.2737 0 0 1.2729 231.71 17.448)" stroke-width=".3886"> <path d="m119.8 76.7c-7.8 0-14.1 6.1-14.1 13.6s6.3 13.6 14.1 13.6 14.1-6.1 14.1-13.6-6.3-13.6-14.1-13.6zm0 19.4c-5.5 0-11.3-1.9-11.1-3.4 0 0 1.2-5.1 5.9-6.9 4.8-1.8 9.7-0.7 12 1.6s4.2 4.8 4 5.6-5.4 3.1-10.8 3.1z" fill="#cb8d60"/> <path d="m134.7 89.1c-1.1 1.2-2.9 2.1-4.6 2-0.1-0.1-0.2-0.2-0.2-0.3-0.1-0.1-0.1-0.2-0.2-0.3 0.7 0.1 1.6-0.4 2.1-0.8 0.7-0.6 1.2-1.2 1.4-2.1 0-0.3-0.3-0.4-0.4-0.2-0.4 0.6-0.9 1.3-1.5 1.7-0.5 0.3-1.4 0.3-1.9 0.6v-0.1l-0.9-1.2c0.4-0.1 0.8-0.2 1.1-0.4 0.8-0.4 1.4-1 1.6-1.8 0.1-0.3-0.3-0.4-0.5-0.2-0.4 0.6-0.9 1.1-1.6 1.4-0.4 0.2-0.9 0.2-1.3 0.2-0.1-0.1-0.1-0.2-0.2-0.2l-0.3-0.3-0.4-0.3-0.9-0.8-0.8-0.5-0.8-0.4c-0.3-0.1-0.6-0.3-0.9-0.4-1.2-0.4-2.5-0.6-3.8-0.7-2.6 0-5.2 0.6-7.3 2.2-2 1.6-3.2 3.8-3.6 6.2 0 0.1-0.1 0.2-0.1 0.2 0 0.3 0.1 0.6 0.3 0.8s0.4 0.4 0.7 0.5c0.5 0.3 1 0.5 1.5 0.8 1 0.4 2.1 0.8 3.2 1 2.2 0.5 4.4 0.8 6.6 0.7 1.8-0.1 3.6-0.4 5.4-1 0.3 0.3 0.6 0.7 0.8 1.1s0.2 0.8 0.4 1.1c0.1 0.2 0.4 0.2 0.5-0.1 0.3-0.8-0.3-1.8-0.9-2.4 0.1 0 0.3-0.1 0.4-0.1 0.4-0.2 0.8-0.3 1.2-0.5 0.5 0.2 0.9 0.5 1.3 0.9 0.3 0.4 0.4 0.9 0.8 1.2 0.1 0.1 0.4 0.1 0.4-0.1 0.3-0.6-0.1-1.3-0.6-1.8-0.4-0.3-0.8-0.6-1.2-0.7 0.4-0.2 0.8-0.4 1.2-0.7l0.3-0.3c0.1-0.1 0.1-0.2 0.1-0.3v-0.3c0-0.2-0.1-0.3-0.2-0.5 1.8 0.3 4.2-0.8 4.5-2.8-0.3 0-0.5-0.2-0.7 0zm-4.3 3.7c-0.1 0.2-0.2 0.2-0.3 0.3-0.8 0.6-1.9 1-2.9 1.4-2.1 0.7-4.2 1.1-6.4 1.3-2.2 0.1-4.4-0.1-6.5-0.4-1.1-0.2-2.2-0.4-3.2-0.8-0.5-0.2-1-0.4-1.5-0.7-0.2-0.1-0.5-0.3-0.7-0.5s-0.3-0.4-0.3-0.7c0-0.1 0-0.1 0.1-0.2 1-2.1 2.5-4 4.3-5.1 0.9-0.6 2-1 3.1-1.2 1.1-0.3 2.2-0.4 3.4-0.4 1.1 0 2.2 0.2 3.3 0.5 0.3 0.1 0.5 0.2 0.8 0.3l0.4 0.1 1.2 0.6 0.7 0.5c0.5 0.3 0.9 0.7 1.4 1.1l1.2 1.2 1.1 1.4c0.2 0.4 0.5 0.8 0.7 1.1v0.2z" fill="#1e0b05"/> <path d="m63.58 81.61s2.73-6.07 7.31-8.29c5.98-2.9 21.19 2.04 22.07 2.67 0.87 0.63 0.35 3.77-1.13 3.92s-8.53-2.96-13.8-4.33c-5.27-1.38-9.96 0-14.45 6.03z" fill="#4d1309"/> <path d="m63.57 81.64c0.12-0.13 0.26-0.26 0.39-0.42l0.37-0.43c0.24-0.28 0.49-0.55 0.74-0.81 0.5-0.52 1.02-1.03 1.58-1.49 1.09-0.93 2.31-1.71 3.61-2.24s2.7-0.8 4.1-0.78c1.41 0.01 2.8 0.26 4.18 0.67 2.78 0.78 5.52 1.77 8.27 2.72 1.38 0.47 2.75 0.96 4.22 1.28 0.19 0.03 0.37 0.07 0.57 0.07 0.2 0.01 0.44-0.01 0.64-0.1 0.41-0.18 0.69-0.52 0.88-0.87 0.2-0.35 0.32-0.73 0.4-1.12s0.1-0.79 0.05-1.2c-0.03-0.2-0.07-0.4-0.16-0.61-0.08-0.2-0.23-0.4-0.44-0.51-0.36-0.18-0.7-0.28-1.05-0.41-0.7-0.23-1.39-0.45-2.09-0.66a90.5 90.5 0 0 0-4.22-1.12c-2.83-0.68-5.67-1.3-8.59-1.47-1.45-0.08-2.93-0.04-4.37 0.27-0.72 0.16-1.44 0.39-2.11 0.75-0.66 0.35-1.28 0.77-1.85 1.24-1.14 0.95-2.13 2.09-2.98 3.3-0.43 0.6-0.82 1.25-1.18 1.9-0.18 0.33-0.35 0.66-0.52 0.99-0.08 0.17-0.16 0.34-0.24 0.5l-0.11 0.26-0.06 0.13-0.03 0.09-0.01 0.02c-0.01 0.01-0.01 0.04 0.01 0.05zm0.03-0.07c1.45-2.5 3.19-4.99 5.44-6.73 0.56-0.43 1.16-0.82 1.78-1.13 0.61-0.32 1.28-0.52 1.97-0.67 1.37-0.27 2.8-0.32 4.23-0.3s2.86 0.15 4.29 0.34c1.43 0.18 2.85 0.43 4.27 0.75s2.81 0.7 4.2 1.13c0.69 0.21 1.39 0.45 2.06 0.71 0.33 0.13 0.68 0.27 0.98 0.42 0.24 0.13 0.34 0.5 0.36 0.84 0.04 0.7-0.13 1.44-0.48 2.02-0.17 0.29-0.41 0.53-0.67 0.62-0.13 0.05-0.26 0.06-0.42 0.05-0.15-0.01-0.33-0.05-0.5-0.09-0.68-0.16-1.37-0.39-2.05-0.62l-2.06-0.74c-2.74-0.99-5.47-2.05-8.3-2.83-1.41-0.39-2.9-0.66-4.37-0.62-1.48 0.03-2.95 0.36-4.3 0.96-1.35 0.59-2.56 1.49-3.64 2.5-0.55 0.5-1.04 1.05-1.51 1.62-0.23 0.29-0.47 0.57-0.69 0.87-0.11 0.14-0.24 0.3-0.31 0.44-0.08 0.14-0.16 0.31-0.28 0.46z" fill="#3e0a01"/> <path d="m136.97 82.09s-2.84-5.43-7.28-7.34c-5.81-2.49-20.12 2.3-20.92 2.88s-0.19 3.42 1.23 3.52c1.41 0.1 8-2.86 12.98-4.22 4.95-1.34 9.48-0.19 13.99 5.16z" fill="#4d1309"/> <path d="m137 82.06-0.01-0.02-0.02-0.03-0.09-0.18-0.12-0.23c-0.08-0.15-0.16-0.31-0.25-0.45-0.18-0.3-0.35-0.59-0.54-0.88-0.37-0.59-0.77-1.15-1.2-1.69-0.86-1.08-1.84-2.09-2.97-2.92-0.56-0.41-1.17-0.78-1.81-1.09s-1.34-0.49-2.04-0.63c-1.39-0.25-2.8-0.25-4.18-0.15-2.77 0.22-5.46 0.84-8.13 1.51-1.33 0.35-2.66 0.7-3.97 1.1-0.66 0.2-1.31 0.41-1.96 0.64-0.33 0.12-0.64 0.22-0.98 0.39-0.2 0.1-0.33 0.29-0.4 0.47s-0.11 0.37-0.13 0.56a3.636 3.636 0 0 0 0.52 2.1c0.2 0.32 0.48 0.61 0.88 0.77 0.19 0.07 0.42 0.1 0.62 0.08 0.19-0.01 0.37-0.04 0.54-0.09 1.38-0.32 2.67-0.79 3.96-1.25 2.58-0.92 5.16-1.87 7.78-2.64 1.3-0.4 2.61-0.65 3.96-0.69 1.33-0.04 2.68 0.17 3.93 0.62 1.26 0.45 2.45 1.13 3.53 1.95 0.54 0.41 1.06 0.86 1.56 1.32 0.25 0.23 0.49 0.47 0.74 0.71l0.36 0.38c0.13 0.14 0.27 0.26 0.39 0.37 0.02 0.01 0.03-0.02 0.03-0.03zm-0.34-0.4c-0.08-0.11-0.21-0.26-0.32-0.39-0.22-0.27-0.45-0.52-0.69-0.77-0.47-0.5-0.97-0.99-1.51-1.43-1.06-0.89-2.25-1.66-3.55-2.18s-2.72-0.78-4.13-0.78c-1.42-0.01-2.82 0.26-4.14 0.65-2.66 0.76-5.22 1.78-7.79 2.74l-1.92 0.71c-0.64 0.23-1.29 0.45-1.93 0.62-0.16 0.04-0.32 0.07-0.47 0.09s-0.27 0.01-0.4-0.03c-0.25-0.08-0.49-0.29-0.66-0.54-0.35-0.51-0.55-1.18-0.53-1.82 0.01-0.31 0.09-0.64 0.31-0.76 0.28-0.15 0.6-0.28 0.92-0.41 0.64-0.25 1.28-0.48 1.93-0.69 1.3-0.42 2.63-0.8 3.95-1.12 1.34-0.32 2.68-0.57 4.04-0.77s2.72-0.34 4.07-0.4 2.72-0.05 4.03 0.18c0.66 0.11 1.3 0.28 1.9 0.56 0.61 0.27 1.19 0.6 1.75 0.98 2.21 1.53 3.97 3.75 5.45 5.97-0.13-0.15-0.22-0.3-0.31-0.41z" fill="#3e0a01"/> <path d="m109.52 109.12c-0.37-0.88-0.94-1.63-1.59-2.29 0.5 0.77 0.95 1.58 1.22 2.42 0.13 0.42 0.21 0.86 0.14 1.25-0.04 0.2-0.1 0.36-0.23 0.53-0.12 0.17-0.25 0.34-0.41 0.47-0.61 0.58-1.49 0.8-2.35 0.68-0.43-0.05-0.87-0.17-1.28-0.35-0.39-0.14-0.76-0.35-1.13-0.54 0.33-0.49 0.63-1.01 0.89-1.55-0.86 0.8-1.66 1.61-2.52 2.32-0.43 0.35-0.86 0.7-1.32 0.96-0.45 0.27-0.94 0.48-1.33 0.46-0.1 0.01-0.18-0.02-0.27-0.03-0.08-0.05-0.15-0.05-0.26-0.14-0.21-0.13-0.43-0.31-0.65-0.48-0.44-0.34-0.87-0.72-1.31-1.08-0.87-0.74-1.75-1.48-2.69-2.17 0.44 0.7 0.95 1.34 1.47 1.97-0.44 0.2-0.89 0.36-1.34 0.46-0.56 0.11-1.15 0.13-1.62-0.09-0.95-0.47-1.51-1.61-1.35-2.58 0.04-0.25 0.12-0.44 0.26-0.65 0.15-0.23 0.32-0.46 0.49-0.69 0.35-0.45 0.72-0.9 1.11-1.33l0.58-0.65c0.23-0.25 0.4-0.49 0.58-0.74 0.36-0.5 0.68-1.03 0.94-1.61 0.26-0.57 0.42-1.23 0.52-1.81 0.1-0.59 0.2-1.18 0.26-1.77 0.13-1.18 0.24-2.36 0.27-3.55 0.08-2.37 0.02-4.76-0.45-7.08 0.05 2.36-0.12 4.7-0.35 7.03-0.13 1.16-0.26 2.33-0.44 3.48-0.09 0.58-0.18 1.15-0.28 1.72-0.11 0.58-0.23 1.07-0.47 1.57-0.22 0.5-0.5 0.99-0.82 1.45-0.16 0.23-0.33 0.47-0.5 0.65-0.2 0.23-0.39 0.45-0.58 0.68-0.38 0.46-0.74 0.94-1.09 1.43-0.17 0.25-0.35 0.5-0.5 0.77-0.18 0.29-0.3 0.67-0.32 1-0.11 1.38 0.74 2.67 1.98 3.12 0.64 0.2 1.29 0.1 1.86-0.1 0.47-0.16 0.9-0.4 1.31-0.67 0.21 0.25 0.41 0.5 0.63 0.74 0.39 0.44 0.8 0.84 1.24 1.25 0.22 0.2 0.45 0.39 0.72 0.57 0.11 0.09 0.32 0.19 0.5 0.27 0.19 0.05 0.39 0.1 0.58 0.1 0.77 0 1.36-0.33 1.88-0.66 0.51-0.36 0.96-0.75 1.36-1.2 0.39-0.42 0.74-0.87 1.06-1.34 0.66 0.58 1.44 1.09 2.36 1.27 0.47 0.1 0.98 0.11 1.46 0 0.48-0.12 0.94-0.36 1.31-0.7 0.19-0.17 0.34-0.37 0.48-0.57 0.15-0.2 0.26-0.48 0.28-0.73 0.03-0.54-0.1-1.03-0.29-1.47z" fill="#9d521b"/> </g> <path d="m468.5 189.8c0.5095-0.12729 0.76425-0.89101 0.12738-1.0183-16.304-4.455-1.4011-16.675-4.5855-25.967-2.038-5.9825-8.4067-6.8735-11.973-11.329-4.5855-5.8552 4.5855-13.747 5.7319-19.857 1.019-5.4734-2.5475-10.438-4.4581-15.402 0.38212-2.2912 0.76425-4.7096 1.2738-7.0008 0.63687-3.0549 1.1464-6.1098 1.019-9.1647 0.12737-0.50914 0.25475-1.1456 0.38212-1.782 1.2738-7.1281-1.4011-14.638-7.133-19.22-2.9296-2.4185-6.114-3.6913-9.5531-4.2005 0-1.2729-0.12737-2.4185-0.5095-3.564-0.76425-2.4185-2.1654-4.4551-4.076-6.1098s-4.2034-2.8003-6.6235-3.4368c-4.2034-1.0183-9.4257 1.0183-13.12-1.9093-4.5855-3.6913-5.095-10.31-10.445-13.747-5.3498-3.3095-10.954-3.4368-16.559-1.0183 0 0-0.12737 0-0.12737 0.12729-2.038-1.2729-4.2034-2.0366-6.4961-2.4185-2.2928-0.25458-4.3308 0.25457-6.4961 0.25457-1.5285 0-2.8022-0.25457-4.076-0.63644-0.38212-0.25457-0.76425-0.38186-1.1464-0.63644-1.1464-0.50915-2.4201-0.89101-3.6939-1.1456-0.89162-0.25457-1.6559-0.38186-2.4201-0.50915-5.3497-0.76372-10.954 0.50915-15.54 4.7096-3.5665 3.1822-5.9866 6.7462-11.082 7.1281-11.209-2.9276-27.513 3.0549-26.239 14.638v0.50915c-5.095-2.4185-12.992-2.4185-17.196-1.4002-4.3307 1.0183-8.5341 3.564-10.317 7.8918-1.5285 3.6913-1.4011 6.7462-5.7319 8.5282-2.5475 1.0183-5.4771 1.0183-8.0246 2.2912-3.1844 1.5274-6.4961 4.5823-6.3688 8.5282 0.12738 1.4002 0.76425 2.673 1.5285 3.9459 0.63688 0.89101 1.5285 1.5274 2.1654 2.4185 1.6559 2.4185 3.3118 7.1281 1.9106 9.8011-1.019 1.9093-2.8022 2.5457-3.057 4.8369-0.38212 2.5457 1.4011 3.564 1.5285 5.9825 0.25475 3.564-4.3308 5.3461-2.6749 9.0374 0.25475 0.50915 0.89162 0.25457 1.019-0.12729 1.019-3.0549 4.3307-4.7096 5.095-7.7645 0.25475-0.89101 0-1.5274 0-2.4184-0.25475-0.63644-0.63687-1.2729-1.1464-1.9093-0.76425-2.8003 0-4.9642 2.038-6.3644 1.2737-2.4185 3.057-3.3095 2.4201-6.4916-0.76425-3.6913-4.4581-4.8369-6.114-7.8918-6.7509-11.201 14.521-8.5282 17.832-14.765 1.2738-2.5457 0.12737-4.2005 2.5475-6.8735 2.038-2.4185 5.3497-3.1822 8.4067-3.564 1.7832-0.12729 3.9486-0.25458 5.9866-0.12729-4.2034 0.50915-8.4067 2.1639-11.209 4.4551-2.2928 1.9093-4.076 4.3278-5.3498 7.0008-0.5095 0.38186-1.1464 0.89101-1.6559 1.4002-3.1844 3.1822-5.6045 7.3827-5.6045 11.965 0 5.8552 4.076 10.31 5.4771 15.784 0.12738 0.63643 0.25475 1.1456 0.25475 1.782-0.89162 2.5457-2.5475 4.5823-4.5855 6.3644-5.2224 1.0183-10.445 4.7096-13.756 9.292-4.8402 3.1822-8.7889 7.0008-9.6805 13.238-0.89163 5.8552 1.4011 11.583 5.9866 15.402 2.9296 2.4185 7.0056 4.0732 9.0436 7.3827 0.12737 0.12729 0.12737 0.38186 0.25475 0.50915-4.5855 7.0008-15.667 12.601-17.705 21.002-1.019 4.3278 0.12737 9.1647 3.057 12.601 3.4391 3.9459 9.2984 4.2005 6.114 11.965-0.63688 1.5274-1.4011 1.9093-1.4011 3.6913 0 0.63643 0.89163 0.89101 1.1464 0.25457 2.4201-4.455 8.6615-6.4916 4.8402-12.474-2.1654-3.3095-6.6235-4.0732-8.5341-7.7645-1.7832-3.3095-1.019-6.4916 0.76425-9.292 0.76424 7.6372 8.0246 14.893 15.54 12.729 2.9296 3.3095 4.8402 6.6189 1.5285 11.456-1.7832 2.673-5.7319 6.1098-4.3308 9.8011 1.4011 3.8186 5.8592 4.5823 9.5531 3.4368 2.038 3.0549 5.095 5.6006 8.4067 7.0008 0.89163 2.2912 2.1654 4.3278 4.3308 5.6006 2.6749 1.6547 7.6425 2.4185 9.0436-1.2729 0.38212-0.89101-0.5095-1.782-1.4011-1.782-2.5475 0-4.3307 0.89101-6.4961-1.1456l-0.38212-0.38186c3.057 0 5.8592-1.2729 8.152-4.455 2.038-2.8003 2.9296-6.2371 2.6749-9.5465 1.019 1.5274 2.1654 2.8003 3.5665 3.564 2.1654 1.2729 5.2224 2.0366 7.6425 0.76372 1.9106-1.0183 3.4391-3.6913 2.1654-5.7279-0.5095-0.76372-1.7832-0.89101-2.2928 0-0.38212 0.63644-0.76425 1.2729-1.2738 1.6547-1.7832-0.25457-2.038-4.2005-1.6559-5.7279 0.38212-1.5274 2.8022-2.8003 3.9486-3.6913 1.5285-1.1456 3.057-1.6547 4.2034-3.3095 2.1654-2.8003 2.2928-6.6189 1.019-9.8011-1.2738-3.4368-3.9486-5.8552-6.8782-7.7645-3.3118-2.1639-6.3688-3.4368-7.6425-7.51-1.2738-4.2005 0.76425-7.8918 1.5285-11.838v-0.38187c1.2738-1.2729 2.1654-2.673 2.5475-4.455 1.6559-9.292-12.737-11.71-10.445-20.366 0.25475-1.0183 0.76425-1.9093 1.2738-2.673 0.38212-0.50915 0.76425-0.89101 1.2738-1.4002 1.2738-1.1456 2.9296-2.1639 4.3307-3.1822 2.2928-1.4002 4.9676-2.4185 7.5151-3.8186 4.2034-2.1639 7.133-4.8369 7.3877-9.8011 0.25475-5.7279-3.1844-10.31-5.7319-15.02-5.6045-10.438 0.89163-18.584 9.9352-23.039 0.76425-0.12729 1.5285-0.38186 2.2927-0.76372 0.25475 0.12729 0.63688 0 0.89163-0.12729 0.25475-0.25458 0.5095-0.38186 0.76425-0.63644h0.25475c9.6805-5.4734 18.979-12.856 30.825-10.438 6.7509 1.4002 13.884 5.8552 12.355 13.747-0.89163 4.4551-2.8022 8.6555-2.5475 13.238 0.38212 7.3827 6.4961 11.329 13.247 12.092 3.4391 0.38186 6.8782-0.12729 10.317-0.50915 8.6615 2.1639 16.559 7.51 14.903 17.948-1.4011 8.5282-9.6805 14.002-12.101 22.275-0.76425 2.8003-0.89162 5.7279-0.12738 8.5282 0 1.4002 0.25475 2.8003 0.76425 4.2005 1.2738 3.0549 3.6939 5.0915 5.8592 7.3826 5.8592 6.3644-0.38213 10.565-5.095 14.765-2.5475 2.2912-4.8402 5.4734-5.4771 8.7828-0.5095 0.50914-1.1464 1.1456-1.5285 1.782-2.6749 4.2005-2.5475 12.601 3.6939 13.365 0.89162 0.12729 1.2738-1.2729 0.5095-1.6547-2.8022-1.2729-2.9296-4.5823-1.9106-7.3827 0.38213 0.63644 0.76425 1.2729 1.2738 1.9093 1.1464 1.2729 2.4201 2.0366 3.8212 2.9276 3.057 2.1639 3.1844 5.0915 2.5475 8.5282-0.12738 0.38186-0.12738 0.76372-0.25475 1.1456 0 0.12729 0 0.12729-0.12738 0.25458-0.76425 2.9276-1.7832 5.4734-0.76425 8.6555 0.5095 1.4002 1.2738 2.5457 2.2928 3.4368-2.4201-0.12729-5.095-2.0366-6.2414-4.5823-0.5095-0.89101-1.7832-0.25457-1.6559 0.63644 1.5285 6.8735 8.9162 9.0374 13.502 5.2188h0.25475c2.9296 0 5.3498 0.12729 7.7699 1.0183 3.4391 2.4185 7.2604 3.9459 11.718 3.3095 3.8212 0.12728 7.8972-0.76373 11.209-2.0366 6.4961-1.9093 12.61-8.6555 12.355-15.02 4.9676 4.0732 13.756 3.3095 14.139-5.3461 0.12738-1.4002-1.7832-1.782-2.4201-0.63644-1.9106 4.0732-4.8402 3.6913-8.9162-1.4002 0.50949-1.4002 1.019-2.673 1.6559-3.9459 0.5095-1.2729 1.1464-2.5457 1.4011-3.9459 0.5095-3.1822-0.25475-5.8552-2.5475-8.1464-0.76424-0.76373-1.6559-1.4002-2.5475-2.0366-0.12738-0.25457-0.38213-0.50915-0.5095-0.76372-0.89163-2.0366-1.9106-4.0732-2.8022-6.1098 0.89162-1.4002 1.6559-3.0549 2.1654-4.7096 1.9106-3.3095 2.9296-7.0008 3.4391-10.565 0.12738-1.2729 0.25475-2.8003 0.12738-4.2005 0.25475 0.38186 0.5095 0.63644 0.76425 1.0183 1.7832 3.4368-0.5095 7.6372-1.2738 11.074-1.6559 8.0191 3.1844 15.529 11.209 14.383zm-195.65-27.239c-2.6749-3.1822-6.8782-4.9642-10.063-8.2737-4.7129-4.7096-5.095-12.22-1.2738-17.566-1.019 2.1639-1.2737 4.455-0.63687 7.0008 1.6559 5.8552 7.0056 8.7828 10.827 12.983 0.5095 0.63643 1.019 1.1456 1.4011 1.6547 0.38212 1.5274 0.25475 2.9276-0.25475 4.2005zm44.072-72.299c-3.9486 5.3461-4.3307 10.947-1.6559 16.929 1.7832 3.9459 4.7129 7.3826 5.7319 11.71 1.1464 4.7096-1.2738 7.5099-4.4581 9.5465 0.38212-0.76372 0.76425-1.6547 1.019-2.5457 1.4011-4.7096 0.89162-9.4193-1.7832-13.238 0-0.12729-0.12738-0.12729-0.12738-0.25458-3.057-6.6189-4.7129-12.092-1.6559-19.093 0.25475-0.50915 0.12737-1.1456-0.25475-1.5274 1.5285-1.6547 3.1844-3.1822 5.3497-4.3278 0.25475-0.12729 0.38213-0.25457 0.63688-0.38186-1.1464 1.0183-2.038 2.0366-2.8022 3.1822zm62.159 11.456c-1.6559-4.0732-0.38213-7.5099 1.019-11.456 1.6559-4.7096 3.4391-8.9101 0.89162-13.62-6.3687-11.583-19.361-12.092-30.952-7.8918 0.89163-0.63644 1.6559-1.2729 2.5475-1.9093 4.4581-1.782 9.171-2.8003 14.011-2.5457 4.7129 0.25457 9.4257 1.5274 13.374 4.2005 2.5475 3.6913 4.8402 7.2554 4.9676 11.965 0.12738 5.0915-2.4201 9.6738-2.8022 14.638-0.5095 5.6006 1.6559 10.31 6.114 12.856-4.2034-0.38186-7.6425-2.1639-9.171-6.2371z" fill="#612207" stroke-width=".4948"/> <path d="m420.74 172.1c-1.2738-1.0183-2.6749-1.6547-4.076-2.2912s-2.9296-1.0183-4.3308-1.4002c-1.4011-0.38186-2.8022-0.76372-4.076-1.2729-2.5475-1.0183-4.8402-2.2912-5.9866-4.5823-1.1464-2.1639-1.1464-4.9642-0.38213-7.51 0.76425-2.673 2.1654-4.9642 3.8212-7.3826 3.3118-4.5823 7.3877-8.7828 10.572-13.874 0.76424-1.2729 1.5285-2.673 2.038-3.9459 0.5095-1.4002 1.019-2.8003 1.2738-4.3278 0.63688-2.9276 0.63688-6.1098-0.25475-9.0374-0.5095-1.5274-1.1464-2.8003-2.038-4.0732l-0.76424-0.89101-0.76425-0.76372c-0.5095-0.50915-1.1464-1.0183-1.7832-1.4002-2.6749-1.5274-5.6045-2.1639-8.6615-2.1639-5.9866-0.12729-11.591 2.0366-17.323 1.9093-2.8022-0.12729-5.7319-0.76373-7.8972-2.4185-1.019-0.89101-1.9106-1.9093-2.4201-3.1822-0.38212-1.2729-0.5095-2.673-0.25475-3.9459 0.38213-2.673 1.9106-5.0915 3.5665-7.5099 1.5285-2.4185 3.4391-4.8369 4.2034-7.8918 0.38213-1.5274 0.5095-3.0549 0.5095-4.7096-0.12737-1.5274-0.5095-3.0549-1.019-4.5823-1.019-2.9276-2.9296-5.4733-5.2224-7.5099s-5.2224-3.4368-8.152-4.2005-6.114-0.76372-9.0436-0.38186c-5.9866 0.76372-11.591 3.4368-16.304 6.8735s-8.7889 7.6372-12.737 11.965l0.12737 0.12729c4.3308-3.9459 8.5341-7.8918 13.374-11.074 2.4201-1.5274 4.8402-2.9276 7.5151-4.0732 2.6749-1.0183 5.3498-1.6547 8.152-2.0366 5.4771-0.63644 11.336 0.63644 15.412 4.3278 1.019 0.89101 1.9106 1.9093 2.6749 3.0549 0.76425 1.1456 1.4011 2.2912 1.9106 3.564 1.019 2.5457 1.2738 5.3461 0.63688 7.8918-0.63688 2.5457-2.1654 4.9642-3.6939 7.5099-1.5285 2.4185-3.057 5.2188-3.4391 8.2737-0.25475 1.5274 0 3.1822 0.5095 4.5823 0.63687 1.4002 1.6559 2.673 2.9296 3.564 2.5475 1.782 5.6045 2.2912 8.5341 2.4185 5.9866 0 11.591-2.0366 17.323-1.782 2.8022 0.12729 5.7319 0.63644 8.0246 2.1639 0.5095 0.38186 1.1464 0.76373 1.6559 1.2729l0.76425 0.76373 0.63688 0.76372c0.76424 1.1456 1.4011 2.4185 1.6559 3.6913 0.63687 2.673 0.5095 5.4734-0.12738 8.2737-0.63687 2.673-1.7832 5.2188-3.4391 7.6372-3.057 4.7096-7.2604 8.7828-10.827 13.62-1.7832 2.4185-3.3118 4.9642-4.3308 8.0191-0.5095 1.5274-0.76425 3.0549-0.76425 4.7096s0.38213 3.3095 1.1464 4.8369c0.76424 1.5274 1.9106 2.8003 3.3117 3.6913 1.2738 0.89101 2.8022 1.6547 4.2034 2.1639 2.8022 1.0183 5.7319 1.6547 8.2794 2.673s4.9676 2.5457 6.114 4.7096c0.5095 1.0183 0.76425 2.2912 0.63687 3.4368-0.12737 1.1456-0.76425 2.2912-1.5285 3.3095-1.6559 2.0366-4.076 3.4368-6.6235 4.9642-1.2738 0.76373-2.5475 1.5274-3.6939 2.5458-1.1464 1.0183-2.2928 2.2912-2.9296 3.6913-0.76425 1.4002-1.1464 3.0549-1.019 4.7096 0.12738 0.89101 0.38213 1.6547 0.76425 2.4185 0.5095 0.76372 1.019 1.4002 1.6559 1.9093 2.5475 2.0366 5.6045 2.5457 7.7699 4.0732 1.1464 0.76372 1.9106 1.782 2.1654 3.0549s0 2.673-0.5095 3.9459c-1.1464 2.5457-3.6939 4.3278-6.114 5.8552l0.12738 0.25457c2.4201-1.4002 5.095-3.0549 6.6235-5.7279 0.76425-1.4002 1.1464-2.9276 0.89163-4.4551-0.25475-1.6547-1.2738-3.0549-2.4201-3.9459-2.4201-1.9093-5.4771-2.5457-7.3877-4.3278-1.019-0.89101-1.5285-1.9093-1.6559-3.1822-0.12738-1.1456 0.25475-2.5458 0.89162-3.6913 1.2738-2.2912 3.5665-3.8186 6.114-5.2188 1.2738-0.76372 2.5475-1.4002 3.8212-2.2912s2.5475-1.9093 3.5665-3.0549c1.019-1.2729 1.9106-2.673 2.1654-4.455 0.25475-1.6547 0-3.564-0.76425-5.0915-0.89162-1.4002-2.038-2.673-3.3117-3.564zm-103.56-82.991c1.4011-1.0183 3.057-1.9093 4.7129-2.673 3.3118-1.5274 7.0056-2.2912 10.572-3.3095v-0.25457c-3.6939 0.50915-7.3878 1.0183-11.082 2.2912-3.5665 1.2729-7.133 3.3095-9.4257 6.6189-1.1464 1.5274-2.038 3.4368-2.5475 5.3461-0.38212 1.9093-0.38212 4.0732 0.25475 6.1098 0.63688 1.9093 1.7832 3.6913 2.9296 5.2188 1.1464 1.5274 2.5475 2.8003 3.8212 4.2005 1.2738 1.2729 2.5475 2.673 3.5665 4.0732s1.7832 3.0549 1.9106 4.7096c0.25475 1.6547-0.25475 3.4368-1.1464 4.9642-0.89163 1.5274-2.2928 2.8003-3.6939 3.9459-2.9296 2.1639-6.4961 3.564-9.5531 5.8552-1.5285 1.1456-2.9296 2.4185-3.9486 4.0732s-1.7832 3.564-1.5285 5.6006c0.12737 2.0366 1.2738 4.0732 2.6749 5.3461 1.4011 1.4002 3.1844 2.4185 4.7129 3.3095 1.6559 1.0183 3.1844 1.9093 4.4581 3.0549 0.38213 0.25457 0.5095 0.63643 0.89163 0.89101 0.25475 0.25457 0.5095 0.63643 0.63687 1.0183 0.25475 0.63643 0.5095 1.4002 0.5095 2.1639 0 1.5274-0.76425 2.9276-1.9106 4.0732-1.1464 1.1456-2.6749 2.1639-4.2034 2.9276-0.76425 0.38187-1.5285 0.76373-2.4201 1.1456-0.89162 0.38186-1.7832 0.89101-2.5475 1.4002-1.6559 1.0183-3.3118 2.2912-4.5855 4.0732-0.63687 0.89101-1.1464 1.9093-1.4011 3.0549-0.25475 1.1456-0.12738 2.2912 0.12737 3.4368 0.63688 2.2912 2.2928 3.6913 3.6939 4.9642s2.6749 2.4184 3.4391 3.8186 0.89162 3.0549 0.63687 4.7096c-0.5095 3.4368-2.6749 6.7462-2.9296 10.819 0 1.0183 0.12737 2.0366 0.38212 2.9276 0.38213 1.0183 1.019 1.782 1.7832 2.4184 0.76425 0.63644 1.6559 1.1456 2.6749 1.2729 1.019 0.25457 2.038 0 2.8022-0.63644l-0.12737-0.25457c-1.6559 0.89101-3.5665 0.12728-4.7129-1.1456-0.63688-0.63644-1.019-1.4002-1.2738-2.1639s-0.25475-1.6547-0.12738-2.5458c0.38213-3.564 2.6749-6.6189 3.5665-10.438 0.5095-1.9093 0.5095-4.2005-0.5095-6.2371-1.019-1.9093-2.5475-3.3095-3.8212-4.5823s-2.4201-2.5457-2.8022-3.9459c-0.38212-1.4002 0-2.8003 0.89163-4.0732 0.89162-1.2729 2.2928-2.4185 3.8212-3.3095 0.76424-0.50915 1.5285-0.89101 2.2927-1.2729s1.6559-0.89101 2.5475-1.2729c1.6559-0.89101 3.3118-2.0366 4.8402-3.564 0.76425-0.76373 1.4011-1.5274 1.9106-2.5458s0.76425-2.1639 0.76425-3.3095-0.38212-2.1639-0.89162-3.1822c-0.25475-0.50914-0.63688-0.89101-0.89163-1.4002l-1.1464-1.1456c-1.5285-1.2729-3.3118-2.1639-4.9676-3.0549-1.6559-0.89101-3.1844-1.782-4.5855-2.8003-1.2738-1.1456-2.2928-2.5458-2.4201-4.2005-0.25475-1.6547 0.25475-3.4368 1.1464-4.9642 0.89163-1.5274 2.1654-2.9276 3.5665-3.9459 2.9296-2.2912 6.3687-3.564 9.5531-5.8552 1.5285-1.1456 2.9296-2.4185 4.076-4.0732 1.1464-1.5274 1.7832-3.564 1.7832-5.6006s-0.89162-3.9459-1.9106-5.6006c-1.019-1.6547-2.2928-3.0549-3.5665-4.5823-2.5475-2.8003-5.095-5.3461-6.2414-8.6555-1.1464-3.1822-0.25475-6.7462 1.6559-9.6738 0.76425-1.1456 1.9106-2.4185 3.3118-3.564zm-17.96 116.09c-0.63687-1.782-0.63687-3.6913-0.25475-5.6006 0.25475-1.9093 0.63688-3.9459 0.5095-5.9825-0.12737-1.0183-0.38212-2.1639-0.89162-3.1822s-1.4011-1.9093-2.2928-2.4185c-1.7832-1.2729-3.5665-1.9093-4.8402-3.0549-1.2738-1.0183-1.6559-2.5458-1.2738-4.2005 0.38213-1.5274 1.2738-3.0549 2.5475-4.2005 1.2738-1.1456 2.9296-2.1639 4.5855-3.1822 0.89162-0.50915 1.6559-1.1456 2.5475-1.782 0.89162-0.63644 1.6559-1.4002 2.2927-2.2912 1.4011-1.6547 2.5475-3.8186 2.2928-6.3644-0.12737-1.2729-0.5095-2.2912-1.1464-3.3095-0.63688-1.0183-1.5285-1.782-2.4201-2.4184-1.7832-1.2729-3.5665-2.0366-5.3498-2.9276-1.6559-0.89101-3.3118-1.782-4.4581-3.0549-1.1464-1.2729-1.6559-2.9276-1.6559-4.7096s0.50949-3.564 1.4011-5.2188c0.89162-1.6547 2.038-3.0549 3.4391-4.3278 2.8022-2.673 6.114-4.8369 8.9162-7.7645 1.4011-1.5274 2.5475-3.0549 3.3118-4.9642 0.89162-1.782 1.2738-3.9459 0.89162-5.9825-0.25475-2.0366-1.4011-3.9459-2.6749-5.3461-1.2738-1.2729-2.6749-2.5457-4.2034-3.8186s-2.9296-2.5457-3.9486-4.0732c-1.019-1.5274-1.7832-3.1822-2.1654-4.8369-0.63688-3.564 0.38212-7.2554 2.2927-10.438 1.9106-3.1822 4.7129-5.7279 8.0246-7.3827 3.4391-1.6547 7.133-2.5457 10.954-2.8003 3.8212-0.38186 7.7699-0.25458 11.591 0v-0.25458c-3.8212-0.63644-7.7699-1.1456-11.718-1.0183-3.9486 0-8.0246 0.76372-11.718 2.4185-1.9106 0.76372-3.6939 1.9093-5.2224 3.1822-1.5285 1.4002-2.9296 2.9276-3.9486 4.7096-2.1654 3.564-3.3118 7.7645-2.4201 11.965 0.38213 2.0366 1.5285 4.0732 2.8022 5.6006 1.4011 1.5274 2.9296 2.8003 4.4581 4.0732 1.5285 1.1456 3.057 2.2912 4.4581 3.6913 1.2738 1.4002 2.2928 2.9276 2.6749 4.8369 0.25475 1.782 0 3.8186-0.76425 5.4734-0.76425 1.6547-1.9106 3.3095-3.3118 4.7096-2.6749 2.8003-6.114 4.7096-9.171 7.2554-3.057 2.5457-5.7319 6.1098-5.9866 10.565-0.12738 2.1639 0.5095 4.455 2.038 6.1098 1.4011 1.6547 3.3117 2.8003 5.095 3.6913s3.5665 1.782 4.9676 2.8003c0.63688 0.50915 1.2738 1.1456 1.6559 1.782 0.38212 0.63644 0.63687 1.4002 0.63687 2.1639 0.12737 1.5274-0.63687 3.0549-1.7832 4.455-1.019 1.4002-2.5475 2.4185-4.2034 3.4368s-3.3118 2.1639-4.9676 3.564c-1.5285 1.5274-2.8022 3.4368-3.1844 5.7279-0.25475 1.1456-0.12738 2.2912 0.25475 3.564 0.38212 1.2729 1.1464 2.1639 2.038 2.8003 1.7832 1.4002 3.6939 1.9093 5.2224 2.9276 1.5285 0.89101 2.2927 2.4185 2.5475 4.2005s0 3.6913-0.12737 5.7279c-0.25475 2.0366 0 4.0732 0.76425 5.9825 0.38212 0.89101 1.019 1.782 1.7832 2.5457 0.76425 0.63644 1.9106 1.0183 2.8022 0.89101v-0.25457c-1.7832-0.25457-3.1844-1.9093-3.6939-3.6913zm141.64-28.003c0.89162-1.4002 1.5285-2.9276 2.038-4.5823 0.38212-1.6547 0.5095-3.3095 0.25475-5.0915s-1.1464-3.4368-2.5475-4.7096c-1.4011-1.2729-3.057-1.9093-4.7129-2.2912-1.6559-0.38186-3.3118-0.50914-4.8402-0.76372-1.5285-0.12729-3.057-0.38186-4.3307-0.76372s-2.4201-1.1456-3.057-2.1639c-1.4011-2.0366-1.019-5.2188 0.25475-7.51 1.4011-2.4185 3.5665-4.5823 5.7319-6.8735s4.2034-4.7096 6.114-7.2554c3.8212-5.0915 7.0056-10.947 7.8972-17.438 0.89162-6.4916-0.63688-13.365-4.9676-18.457-1.019-1.2729-2.2928-2.4185-3.6939-3.3095-1.4011-0.89101-2.9296-1.6547-4.5855-2.0366-3.1844-0.89101-6.4961-0.76372-9.6805-0.12729-6.3688 1.1456-11.846 4.4551-17.705 6.3644-2.9296 0.89101-5.9866 1.782-9.0436 1.2729-1.5285-0.25457-2.8022-1.1456-3.6939-2.2912-0.89163-1.1456-1.2738-2.673-1.5285-4.2005-0.25475-3.0549 0.89162-5.9825 2.038-8.9101 1.1464-2.9276 1.9106-6.1098 2.1654-9.292 0.5095-6.3644-0.89162-12.983-4.5855-18.457-3.8212-5.3461-9.9352-8.9101-16.304-10.056-6.3688-1.2729-12.992-0.63644-18.979 1.782s-11.209 6.3644-15.412 11.074c-4.3308 4.7096-7.7699 10.056-10.445 15.656l0.25475 0.12729c3.1844-5.3461 6.7509-10.438 11.209-14.893 4.3307-4.4551 9.5531-7.8918 15.158-10.183 5.7319-2.1639 11.973-2.673 17.832-1.4002 2.9296 0.63644 5.8592 1.6547 8.4068 3.1822 2.5475 1.5274 4.8402 3.564 6.6235 5.9825 3.5665 4.8369 5.2224 10.947 4.9676 17.056-0.12737 3.0549-0.76425 6.1098-1.7832 9.0374-1.019 2.9276-2.1654 5.9825-1.7832 9.292 0.12738 1.6547 0.63688 3.1822 1.6559 4.5823 1.019 1.4002 2.5475 2.2912 4.076 2.5457 3.3118 0.63644 6.4961-0.25458 9.4258-1.1456 5.9866-1.9093 11.591-4.8369 17.705-5.7279 3.057-0.50915 6.114-0.38186 8.9162 0.38186 1.4011 0.38186 2.6749 1.1456 3.9486 1.9093 1.1464 0.89101 2.2928 1.9093 3.1844 3.0549 3.6939 4.7096 4.9676 11.074 4.076 16.802-0.89163 5.9825-3.9486 11.329-7.7699 16.165-1.9106 2.4184-3.9486 4.7096-5.9866 7.0008s-4.4581 4.4551-6.2414 7.51c-0.76425 1.5274-1.4011 3.3095-1.4011 5.0915-0.12738 1.782 0.25475 3.6913 1.4011 5.2188 1.1464 1.5274 2.8022 2.673 4.4581 3.1822 1.6559 0.50915 3.3118 0.63644 4.8402 0.76372 3.057 0.25458 6.2414 0.38187 8.152 2.2912 1.019 0.89101 1.6559 2.0366 1.9106 3.4368s0.12738 2.8003-0.12737 4.2005c-0.38212 1.4002-0.89162 2.8003-1.6559 4.0732-0.76425 1.2729-1.7832 2.4184-2.6749 3.564-2.038 2.2912-4.4581 4.3278-6.4961 6.8735-1.019 1.2729-1.9106 2.5457-2.5475 4.0732-0.63688 1.5274-1.019 3.0549-1.019 4.7096s0.25475 3.3095 0.89162 4.7096c0.76425 1.4002 1.9106 2.673 3.4391 3.3095l0.12738-0.25458c-1.4011-0.76372-2.4201-1.9093-2.9296-3.3095s-0.76425-2.9276-0.63688-4.4551c0.12738-1.5274 0.5095-3.0549 1.1464-4.3278 0.63687-1.2729 1.5285-2.5458 2.5475-3.6913 2.038-2.2912 4.4581-4.2005 6.7509-6.4916 1.6559-1.1456 2.6749-2.4184 3.5665-3.8186zm-123.3-107.94c-0.63688-3.564-0.89163-7.1281-0.25475-10.438 0.12737-0.76372 0.38212-1.6547 0.76425-2.4185 0.25475-0.76372 0.63687-1.5274 1.019-2.2912 0.89163-1.4002 2.038-2.673 3.3118-3.6913s2.8022-1.782 4.4581-2.1639c0.89163-0.12729 1.6559-0.12729 2.5475-0.12729 0.89162 0.12729 1.6559 0.38186 2.5475 0.63644 1.6559 0.50915 3.4391 1.2729 5.3497 1.2729 1.019 0 1.9106-0.38186 2.8022-0.89101 0.25475-0.12729 0.38213-0.25458 0.63688-0.38186l0.5095-0.50915c0.38212-0.25457 0.63687-0.76372 1.019-1.1456 1.1464-1.5274 1.9106-3.3095 2.5475-4.9642 0.76425-1.6547 1.4011-3.1822 2.4201-4.3278 0.50949-0.50915 1.019-0.89101 1.6559-1.1456 0.63687-0.25457 1.2738-0.25457 2.038 0 1.4011 0.38186 2.8022 1.2729 4.3307 2.2912 0.76425 0.50915 1.5285 1.0183 2.5475 1.4002 0.89163 0.38186 1.9106 0.76372 3.057 0.76372 1.1464 0.12729 2.1654-0.12729 3.1844-0.50915 0.89162-0.38186 1.7832-0.76372 2.5475-1.2729l2.2928-1.4002c0.76425-0.38186 1.5285-0.76372 2.2927-1.0183 1.5285-0.38186 3.4391-0.50915 4.7129 0.89101l0.25475-0.12729c-0.5095-0.76372-1.2738-1.4002-2.2928-1.782-0.89163-0.25457-1.9106-0.38186-2.9296-0.25457s-1.9106 0.38186-2.8022 0.76372c-0.89163 0.38186-1.6559 0.76372-2.4201 1.1456-1.5285 0.76372-3.1844 1.2729-4.5855 1.1456-1.4011-0.12729-2.8022-1.0183-4.2034-2.0366-1.5285-0.89101-3.057-2.1639-5.2224-2.673-2.1654-0.50915-4.7129 0.50915-6.114 2.1639-2.5475 3.3095-2.8022 7.1281-4.4581 10.056-0.76425 1.4002-2.1654 2.673-3.8212 2.8003-1.6559 0.12729-3.4391-0.50915-5.095-1.1456-1.6559-0.63644-3.5665-1.2729-5.4771-1.1456-1.9106 0.12729-3.8212 0.76372-5.4771 1.782-1.6559 1.0183-3.057 2.5457-3.9486 4.2005-1.019 1.782-1.5285 3.564-1.7832 5.4734-0.38213 3.8186 0.38212 7.5099 1.9106 10.819zm-57.701 51.806c-1.7832-1.1456-2.9296-3.0549-3.3118-4.9642-0.38212-1.9093 0.5095-3.9459 1.7832-5.3461 0.63688-0.63644 1.4011-1.2729 2.2928-1.5274 0.89162-0.38186 1.9106-0.50915 2.9296-0.63643 2.038-0.25458 5.095-1.0183 6.3688-3.9459 0.25475-0.76372 0.38212-1.5274 0.25475-2.2912-0.12738-0.76372-0.5095-1.5274-0.89163-2.0366-0.76425-1.0183-1.7832-1.782-2.4201-2.4185s-1.1464-1.4002-1.5285-2.2912c-0.38212-0.89101-0.5095-1.782-0.63687-2.8003-0.12738-1.9093 0.5095-3.8186 1.5285-5.4733 0.50949-0.76372 1.2737-1.5274 2.038-2.0366 0.76425-0.50915 1.7832-0.89101 2.8022-1.2729 2.038-0.63644 4.2034-1.0183 6.2414-1.5274 2.1654-0.50915 4.3308-1.5274 5.7319-3.564 1.2738-1.9093 1.5285-4.3278 2.4201-6.1098 0.89163-1.782 2.4201-3.1822 4.2034-4.2005 1.7832-1.0183 3.6939-1.782 5.6045-2.1639s4.076-0.38186 6.114-0.12729c4.2034 0.50915 8.2794 1.9093 12.483 3.1822l0.12738-0.25458c-3.8212-2.0366-7.7699-4.0732-12.228-4.8369-4.3308-0.89101-9.4257-0.25458-13.247 2.4185-1.9106 1.4002-3.4391 3.1822-4.3308 5.3461-0.89162 2.1639-0.76424 4.4551-1.9106 6.2371-1.019 1.782-3.057 2.673-5.2224 3.0549-2.038 0.50915-4.2034 0.50915-6.4961 1.0183-1.1464 0.25458-2.1654 0.63644-3.3118 1.1456-1.1464 0.50915-2.038 1.4002-2.8022 2.2912-1.5285 1.9093-2.2928 4.3278-2.2928 6.7462 0 1.2729 0.12737 2.4185 0.63687 3.564 0.38213 1.1456 1.1464 2.2912 1.9106 3.1822 0.76425 0.89101 1.6559 1.5274 2.1654 2.1639s0.5095 1.1456 0.38212 1.782c-0.25475 0.63644-0.89162 1.2729-1.6559 1.6547-0.76425 0.38187-1.6559 0.63644-2.6749 0.89102-1.019 0.25457-2.038 0.63643-3.1844 1.1456-1.1464 0.50915-2.1654 1.4002-2.9296 2.2912-1.5285 1.9093-2.1654 4.5823-1.4011 6.8735 0.63687 2.2912 2.2928 4.2005 4.4581 4.9642zm37.448 114.05c-1.1464 0.25458-2.2928-0.12728-3.3118-0.76372-1.9106-1.4002-2.8022-3.8186-3.9486-5.9825-0.63687-1.1456-1.4011-2.2912-2.4201-3.1822s-2.4201-1.4002-3.6939-1.782c-2.6749-0.50915-5.2224-0.38186-7.5151-0.63644-1.1464-0.12728-2.2928-0.38186-3.057-1.0183-0.76425-0.50915-1.4011-1.4002-1.6559-2.4185-0.38213-1.9093 0.5095-4.3278 1.6559-6.2371 1.2738-2.0366 2.8022-4.2005 3.4391-7.0008 0.38213-1.4002 0.38213-2.9276-0.12737-4.455-0.5095-1.4002-1.4011-2.673-2.4201-3.6913-2.1654-1.9093-4.5855-2.8003-6.7509-3.9459-2.1654-1.0183-4.3307-2.1639-5.6045-3.8186-1.4011-1.6547-1.7832-3.8186-1.1464-5.9825 0.5095-2.1639 1.7832-4.2005 3.3118-5.8552 3.3118-3.4368 8.0246-5.6006 11.591-9.5465 1.6559-2.0366 3.1844-4.3278 3.5665-7.0008 0.25475-1.4002 0.12738-2.8003-0.25475-4.0732-0.38212-1.2729-1.1464-2.5458-2.038-3.564-3.5665-3.9459-8.9162-5.2188-11.973-8.9101-1.5285-1.782-2.4201-4.2005-2.2928-6.6189 0-2.4185 0.76425-4.8369 2.038-6.8735 1.2738-2.0366 3.057-3.8186 4.9676-5.3461 1.9106-1.5274 4.076-2.8003 6.2414-3.9459 2.1654-1.2729 4.3307-2.5457 6.2414-4.455 0.89162-0.89101 1.7832-2.0366 2.2927-3.4368 0.5095-1.2729 0.76425-2.8003 0.63688-4.2005-0.38213-2.8003-1.9106-5.0915-3.057-7.2554-1.2738-2.1639-1.9106-4.2005-2.038-6.4917-0.12737-4.5823 2.1654-9.1647 5.4771-12.601 3.3118-3.4368 7.8972-5.4734 12.61-6.7462s9.8079-1.782 14.648-2.2912v-0.25457c-4.9676 0.12729-10.063 0.25457-15.03 1.2729-2.5475 0.50915-4.9676 1.2729-7.2604 2.2912-2.2927 1.0183-4.5855 2.4185-6.4961 4.3278-1.9106 1.782-3.4391 3.9459-4.5855 6.3644s-1.7832 5.0915-1.7832 7.7645 1.019 5.3461 2.4201 7.6372c1.2738 2.1639 2.6749 4.2005 2.9296 6.3644 0.38212 2.1639-0.5095 4.3278-2.038 6.1098s-3.5665 3.1822-5.7319 4.4551c-4.2034 2.673-8.5341 5.6006-11.209 10.056-1.2738 2.1639-2.038 4.7096-2.1654 7.2554-0.12737 2.5457 0.76425 5.2188 2.4201 7.2554 3.4391 3.9459 8.6615 5.6006 11.591 9.1647 0.76425 0.89101 1.2738 1.9093 1.5285 3.0549 0.25475 1.0183 0.25475 2.2912 0 3.3095-0.5095 2.2912-1.7832 4.3278-3.3118 5.9825-3.1844 3.4368-7.8972 5.4734-11.718 9.1647-1.9106 1.9093-3.4391 4.2005-4.076 6.8735-0.38213 1.4002-0.5095 2.8003-0.25475 4.2005s0.89162 2.8003 1.7832 3.9459c0.89162 1.1456 2.038 2.0366 3.1844 2.8003 1.1464 0.76372 2.2928 1.2729 3.4391 1.9093 2.2928 1.1456 4.4581 2.0366 6.2414 3.564 1.6559 1.4002 2.4201 3.3095 1.9106 5.3461s-1.7832 4.0732-3.057 6.3644c-0.63688 1.1456-1.1464 2.4185-1.5285 3.6913-0.38213 1.2729-0.5095 2.8003-0.12738 4.3278 0.38213 1.5274 1.2738 2.8003 2.5475 3.564 1.2738 0.76372 2.6749 1.1456 4.076 1.2729 2.6749 0.25457 5.095-0.12729 7.3877 0.25457 1.1464 0.12729 2.1654 0.63644 3.057 1.2729 0.89162 0.63644 1.5285 1.6547 2.2928 2.673 1.2737 2.0366 2.4201 4.5823 4.5855 6.1098 0.5095 0.38186 1.1464 0.63644 1.9106 0.76372 0.63688 0.12729 1.4011 0.12729 2.038-0.12728 1.2738-0.25458 2.5475-1.2729 2.6749-2.673h-0.25475c-0.5095 1.5274-1.6559 2.2912-2.8022 2.4184zm169.28-117.1c-0.5095-1.0183-1.4011-1.782-2.1654-2.4185-1.6559-1.2729-3.3117-2.1639-4.7129-3.0549-1.4011-1.0183-2.2927-2.1639-2.6749-3.6913-0.38212-1.5274-0.25475-3.1822 0-4.9642 0.5095-3.564 2.038-7.1281 2.038-11.201 0-4.0732-1.5285-7.8918-3.6939-11.074-2.2928-3.1822-5.3498-5.6006-8.9162-7.2554-3.5665-1.5274-7.2604-2.2912-11.082-2.2912-3.8212-0.12729-7.5151 0.38186-11.209 1.4002-3.5665 1.0183-7.133 2.1639-10.699 2.4185-1.7832 0.12729-3.5665-0.12729-5.095-0.63644-1.5285-0.63644-2.9296-1.6547-3.9486-3.0549-2.1654-2.673-3.1844-6.2371-3.9486-9.8011-0.76425-3.564-1.4011-7.3827-3.3118-10.947-3.8212-7.1281-13.12-10.056-20.125-7.0008l0.12737 0.25458c7.133-2.1639 15.158 1.4002 18.215 7.6372 1.5285 3.1822 2.038 6.7462 2.8022 10.438s1.9106 7.5099 4.4581 10.692c1.2738 1.5274 3.057 2.8003 4.9676 3.3095 1.9106 0.63644 3.9486 0.76372 5.8592 0.38186 3.8212-0.50915 7.2604-2.0366 10.827-3.0549 3.5665-1.0183 7.2604-1.5274 10.954-1.2729 3.6939 0.12729 7.2604 1.1456 10.445 2.8003 3.1844 1.6547 5.8592 4.2005 7.8972 7.1281 1.9106 2.9276 3.057 6.3644 3.057 9.9284 0 3.4368-1.5285 6.8735-2.2928 10.692-0.38213 1.9093-0.63688 3.9459 0 6.1098 0.25475 1.0183 0.76425 2.0366 1.4011 2.9276 0.63688 0.89101 1.5285 1.6547 2.2928 2.1639 1.6559 1.1456 3.3118 1.9093 4.5855 2.9276s2.038 2.2912 2.1654 3.8186c0.12737 1.5274-0.38213 3.1822-1.2738 4.5823-0.76425 1.4002-2.038 2.8003-3.3118 4.0732s-2.6749 2.673-3.6939 4.3278-1.9106 3.564-2.038 5.4734c0 1.0183 0.12738 2.0366 0.5095 2.9276 0.38213 1.0183 1.1464 1.782 1.9106 2.2912 0.76424 0.63643 1.7832 1.0183 2.6749 1.0183 1.019 0.12729 2.038-0.25457 2.8022-0.89101l-0.12738-0.25457c-1.5285 1.0183-3.5665 0.50915-4.8402-0.63644-0.63688-0.50915-1.1464-1.2729-1.4011-2.0366-0.25475-0.76373-0.25475-1.6547-0.25475-2.5458 0.25475-1.6547 1.019-3.3095 2.038-4.7096s2.4201-2.673 3.6939-3.9459c1.4011-1.2729 2.6749-2.673 3.8212-4.3278 1.019-1.6547 1.7832-3.6913 1.7832-5.9825 0.25475-0.50915 0-1.6547-0.5095-2.673zm-59.102-67.844c1.4011 1.9093 2.5475 4.4551 4.4581 6.2371 1.019 0.89101 2.1654 1.6547 3.5665 1.9093 1.4011 0.25458 2.8022-0.12729 3.9486-0.89101s2.1654-1.6547 3.057-2.5457c0.89162-0.89101 1.7832-1.6547 2.6749-2.1639 0.89162-0.50915 1.9106-0.76372 2.6749-0.50915 0.76425 0.25457 1.4011 0.89101 2.038 1.9093 0.76425 0.89101 1.2738 2.2912 2.6749 3.1822 0.63688 0.50915 1.5285 0.89101 2.4201 0.89101 0.89163 0 1.6559-0.25457 2.4201-0.63644 1.4011-0.76372 2.2928-2.0366 2.6749-3.4368 0.38212-1.2729 0.5095-2.673 0.5095-3.9459h-0.25475c-0.38212 1.2729-0.76425 2.4185-1.4011 3.4368-0.63688 1.0183-1.4011 1.782-2.2928 2.0366-1.019 0.38186-1.7832 0.12729-2.4201-0.38186-0.63688-0.63644-1.1464-1.6547-1.9106-2.8003-0.38212-0.63644-0.76425-1.1456-1.4011-1.782-0.63688-0.63644-1.4011-1.0183-2.1654-1.2729-1.7832-0.38186-3.4391 0.25458-4.5855 1.0183s-2.1654 1.782-2.9296 2.8003c-0.76425 1.0183-1.5285 1.9093-2.4201 2.673-0.89162 0.76372-1.9106 1.2729-3.057 1.2729s-2.2928-0.76372-3.057-1.6547c-1.6559-1.782-2.038-4.3278-3.3118-6.7462-2.6749-4.9642-9.4257-7.1281-14.139-4.8369l0.12737 0.25457c4.8402-0.12729 9.5531 2.1639 12.101 5.9825zm49.931 138.87c-1.019-1.1456-2.038-2.1639-2.8022-3.1822-0.38213-0.50915-0.76425-1.1456-1.019-1.782l-0.25475-0.89101c-0.12738-0.25458-0.12738-0.63644-0.12738-1.0183-0.12737-1.2729 0-2.8003 0.38213-4.0732 0.76425-2.8003 2.1654-5.4734 3.1844-8.2737 0.5095-1.4002 0.89162-2.9276 1.019-4.455 0.12737-1.5274-0.12738-3.0549-0.76425-4.5823-1.1464-2.9276-3.5665-5.0915-5.6045-7.1281s-4.2034-4.2005-5.095-6.7462c-0.89162-2.5457-0.63687-5.3461 0.38212-7.8918 0.89163-2.673 2.2928-5.2188 3.6939-7.8918s2.4201-5.6006 2.8022-8.7828c0.12738-1.5274 0.12738-3.1822-0.38212-4.5823-0.38213-1.5274-1.2738-2.9276-2.4201-3.8186l-0.12738 0.12729c0.89163 1.1456 1.5285 2.4184 1.7832 3.9459 0.25475 1.4002 0.12737 2.8003-0.12738 4.2005-0.50949 2.8003-1.7832 5.4734-3.1844 8.0191-1.5285 2.5457-3.057 5.2188-4.076 8.1464-0.5095 1.5274-0.89163 3.0549-1.019 4.7096-0.12738 1.6547 0.12737 3.3095 0.76425 4.8369 2.8022 6.1098 9.4257 8.0191 11.846 13.365 0.5095 1.2729 0.76425 2.8003 0.63688 4.2005-0.12738 1.4002-0.5095 2.8003-1.1464 4.2005-1.019 2.8003-2.6749 5.3461-3.6939 8.1464-0.5095 1.4002-0.89162 3.0549-0.76425 4.7096 0 1.6547 0.63687 3.3095 1.5285 4.7096 1.7832 2.673 4.2034 4.5823 5.095 7.0008 0.5095 1.1456 0.5095 2.4185 0 3.3095-0.50949 1.0183-1.5285 1.782-2.6749 2.4185-1.2738 0.76372-2.6749 1.5274-3.8212 3.0549-1.1464 1.4002-1.6559 3.4368-1.4011 5.2188 0.38213 3.3095 1.9106 5.9825 2.2928 8.6555 0.38212 2.673-0.12738 5.4734-1.4011 7.8918-2.4201 4.9642-8.6615 7.8918-14.521 6.7462l-0.12738 0.25458c2.8022 1.0183 6.114 0.89101 9.0436-0.12729s5.6045-3.0549 7.2604-5.8552c1.6559-2.673 2.4201-5.9825 2.1654-9.1647-0.12737-1.6547-0.63687-3.1822-1.1464-4.5823-0.38213-1.4002-0.89163-2.8003-0.89163-4.0732-0.12737-1.2729 0.12738-2.2912 0.76425-3.1822 0.63688-0.89101 1.9106-1.6547 3.1844-2.4185 1.2737-0.76372 2.8022-1.782 3.5665-3.6913 0.89163-1.782 0.5095-3.8186-0.12737-5.3461-0.63688-1.9093-1.6559-3.1822-2.6749-4.3278z" fill="#521900" stroke-width=".4948"/> <g transform="matrix(1.2737 0 0 1.2729 231.71 17.448)" stroke-width=".3886"> <path d="m80.2 76.7c-7.8 0-14.1 6.1-14.1 13.6s6.3 13.6 14.1 13.6 14.1-6.1 14.1-13.6-6.3-13.6-14.1-13.6zm0 20.5c-5.5 0-10.7-2.6-10.8-3.5s0.9-3.9 3.2-6.4 8-3.3 12.8-1.4 5.9 7.5 5.9 7.5c0.1 1.7-5.6 3.8-11.1 3.8z" fill="#cb8d60"/> <path d="m90.2 90.3-0.9-1.5c-1-1.5-2.4-2.8-4.2-3.7-2.2-1.1-4.8-1.4-7.2-1-1.2 0.2-2.4 0.6-3.5 1.1-1 0.5-2 1.2-2.8 2.1h-0.1c-0.7-0.4-1.4-0.5-2-1s-1-1.1-1.3-1.8c-0.1-0.2-0.5-0.1-0.5 0.1 0.1 0.9 0.5 1.7 1.1 2.3 0.5 0.5 1.3 1.2 2.1 1.3-0.1 0.2-0.3 0.4-0.4 0.6-0.7-0.2-1.5-0.1-2.2-0.3-1.1-0.3-1.8-1.1-2.6-1.9-0.2-0.2-0.5 0-0.4 0.2 0.4 1.1 1.3 1.8 2.4 2.3 0.6 0.3 1.5 0.7 2.3 0.7-0.1 0.2-0.2 0.5-0.3 0.8h-0.1c-0.8 0-1.6 0.4-2.4 0.3-1.2 0.1-2.2-0.6-2.8-1.5-0.2-0.2-0.5 0-0.4 0.2 0.9 1.4 3.6 2.9 5.4 2.2 0 0.2-0.1 0.4-0.1 0.6-0.1 0.3-0.2 0.7-0.2 1.1v0.2c0 0.1 0.1 0.2 0.1 0.3l0.4 0.4c-1.1-0.1-2.5 0.9-2.7 1.8 0 0.2 0.2 0.4 0.4 0.3 0.4-0.3 0.8-0.7 1.2-0.9s1.3-0.5 1.8-0.7c0.1 0.1 0.2 0.1 0.3 0.2-0.4 0.1-0.7 0.4-1 0.7-0.4 0.5-0.5 1.1-0.4 1.7 0.1 0.2 0.4 0.2 0.4-0.1 0-0.5 0.3-0.9 0.6-1.2s0.8-0.4 1.1-0.7c0.1 0.1 0.2 0.1 0.4 0.2 2.1 0.9 4.4 1.5 6.8 1.7s4.7-0.1 7-0.7c1.1-0.3 2.2-0.7 3.3-1.1 0.5-0.2 1-0.5 1.5-0.8 0.2-0.2 0.4-0.3 0.6-0.6s0.3-0.5 0.3-0.8c-0.1-1-0.5-2.1-1-3.1zm0.8 3.9c-0.2 0.2-0.4 0.4-0.6 0.5-0.5 0.3-1 0.6-1.5 0.8-1.1 0.4-2.2 0.7-3.3 0.9-2.3 0.4-4.6 0.6-6.8 0.4-2.3-0.2-4.5-0.8-6.6-1.6-0.5-0.2-1-0.5-1.5-0.7-0.2-0.1-0.5-0.3-0.7-0.5-0.1-0.1-0.2-0.2-0.2-0.3 0 0 0-0.1-0.1-0.1v-0.2c0-0.4 0.1-0.8 0.2-1.1 0.7-1.5 1.6-2.9 2.8-4 1.5-1.4 3.6-2.2 5.7-2.6s4.3-0.2 6.3 0.6c1.8 0.7 3.5 1.8 4.9 3.2 0.8 1.2 1.5 2.5 1.8 3.9-0.1 0.3-0.2 0.6-0.4 0.8z" fill="#1e0b05"/> </g> <g transform="matrix(1.2737 0 0 1.2729 181.32 17.448)" stroke-width=".62338"> <g stroke-width=".62338"> <g stroke-width=".3886"> <path d="m119.8 85.5c2.6 0 4.7 2.1 4.7 4.7s-2.1 4.7-4.7 4.7-4.7-2.1-4.7-4.7 2.1-4.7 4.7-4.7z" fill="#681711"/> <path d="m119.8 95.1c-2.7 0-4.9-2.2-4.9-4.9s2.2-4.9 4.9-4.9 4.9 2.2 4.9 4.9-2.2 4.9-4.9 4.9zm0-9.3c-2.4 0-4.4 2-4.4 4.4s2 4.4 4.4 4.4 4.4-2 4.4-4.4-2-4.4-4.4-4.4z" fill="#490500"/> <path d="m124.2 90.2c-0.6 0-1.2-0.1-1.8 0 0-0.2 0-0.5-0.1-0.7 0.7-0.1 1.3-0.3 2-0.5 0.2-0.1 0.1-0.3-0.1-0.3-0.7 0.1-1.3 0.3-2 0.6 0-0.1-0.1-0.2-0.1-0.3 0.3-0.1 0.5-0.2 0.8-0.3s0.7-0.2 1-0.4c0.1-0.1 0.1-0.2-0.1-0.2-0.6 0.1-1.3 0.4-1.8 0.8 0-0.1-0.1-0.1-0.1-0.2 0.2-0.1 0.4-0.3 0.6-0.4 0.3-0.2 0.6-0.4 0.9-0.7 0.1-0.1 0-0.3-0.2-0.2-0.3 0.2-0.6 0.5-0.9 0.7-0.2 0.1-0.4 0.3-0.6 0.4l-0.3-0.3c0.4-0.5 0.8-1.1 1.1-1.7 0-0.1-0.1-0.2-0.1-0.1-0.4 0.5-0.9 1.1-1.2 1.6-0.1-0.1-0.2-0.1-0.3-0.2 0.2-0.7 0.2-1.4 0.2-2 0-0.1-0.2-0.2-0.3 0-0.1 0.5-0.1 1-0.2 1.5 0 0.1-0.1 0.3-0.1 0.4-0.2-0.1-0.3-0.1-0.5-0.1 0-0.7-0.1-1.3-0.2-1.9 0-0.1-0.1 0-0.1 0-0.1 0.6-0.1 1.3-0.1 1.9h-0.4c0-0.2-0.1-0.3-0.1-0.5-0.1-0.4-0.1-0.8-0.2-1.3 0-0.1-0.2-0.1-0.2 0-0.1 0.5 0 1.2 0.2 1.8-0.1 0-0.1 0-0.2 0.1-0.2-0.6-0.4-1.3-0.6-1.9 0-0.1-0.2-0.1-0.2 0 0.1 0.6 0.3 1.3 0.5 1.9h-0.1c-0.3-0.6-0.8-1.2-1.2-1.7-0.1-0.1-0.2 0-0.1 0.1 0.3 0.6 0.7 1.2 1.1 1.7-0.1 0-0.2 0.1-0.2 0.1-0.1-0.1-0.2-0.2-0.3-0.4-0.3-0.4-0.6-0.8-1-1.1-0.1-0.1-0.2 0-0.1 0.1 0.2 0.4 0.5 0.7 0.8 1.1 0.1 0.2 0.2 0.3 0.4 0.5l-0.3 0.3c-0.5-0.4-1.1-0.8-1.6-1.1-0.1 0-0.1 0-0.1 0.1l1.5 1.2c-0.1 0.1-0.2 0.3-0.2 0.4-0.1 0-0.2-0.1-0.3-0.1-0.5-0.2-1-0.4-1.6-0.6-0.1 0-0.2 0.2-0.1 0.2 0.4 0.2 0.9 0.4 1.4 0.6 0.1 0.1 0.3 0.1 0.4 0.2 0 0.1 0 0.2-0.1 0.2-0.2 0-0.3 0-0.4-0.1-0.5-0.1-1-0.2-1.4-0.1-0.1 0-0.1 0.1 0 0.2 0.5 0.2 1.2 0.3 1.9 0.3v0.4c-0.3 0.1-0.5 0.2-0.8 0.3s-0.7 0.2-1 0.4c-0.1 0.1-0.1 0.2 0.1 0.2 0.4 0 0.8-0.2 1.2-0.4l0.6-0.3c0 0.1 0.1 0.3 0.1 0.4-0.1 0.1-0.2 0.1-0.3 0.2-0.4 0.3-0.9 0.6-1.3 0.9-0.1 0.1 0 0.2 0.1 0.2 0.5-0.2 0.9-0.6 1.4-0.9 0.1 0 0.1-0.1 0.2-0.1 0.1 0.1 0.1 0.2 0.2 0.3-0.5 0.4-0.9 0.9-1.3 1.4-0.1 0.1 0 0.2 0.1 0.1 0.5-0.4 1-0.8 1.4-1.3l0.3 0.3c-0.1 0.2-0.3 0.3-0.4 0.5-0.3 0.4-0.6 0.8-0.8 1.2-0.1 0.1 0.1 0.2 0.2 0.1 0.3-0.3 0.6-0.7 0.9-1.1 0.1-0.2 0.3-0.3 0.4-0.5 0.1 0 0.1 0.1 0.1 0.1-0.1 0.1-0.1 0.3-0.2 0.4-0.2 0.4-0.4 0.8-0.6 1.3 0 0.1 0.1 0.2 0.2 0.1 0.3-0.4 0.5-0.8 0.7-1.3 0.1-0.1 0.1-0.2 0.2-0.3h0.1c-0.3 0.6-0.5 1.3-0.5 1.9 0 0.1 0.1 0.1 0.2 0 0.2-0.6 0.4-1.2 0.7-1.8h0.3c-0.2 0.6-0.2 1.4-0.2 2 0 0.2 0.3 0.2 0.3 0 0-0.7 0.2-1.3 0.2-2h0.2c-0.1 0.6-0.1 1.3 0 1.9 0 0.2 0.3 0.2 0.3 0-0.1-0.6 0-1.3-0.1-1.9 0.2 0 0.4-0.1 0.6-0.1 0.1 0.3 0.2 0.6 0.4 0.9 0.1 0.3 0.2 0.7 0.5 0.9 0.1 0 0.1 0 0.1-0.1 0-0.3-0.2-0.6-0.3-0.9s-0.3-0.6-0.4-0.9c0.1 0 0.1-0.1 0.2-0.1 0.1 0.3 0.3 0.5 0.4 0.8 0.2 0.3 0.3 0.7 0.6 0.9 0.1 0.1 0.2 0 0.2-0.1-0.1-0.3-0.3-0.7-0.5-0.9s-0.3-0.5-0.5-0.7c0.1-0.1 0.2-0.1 0.3-0.2 0.3 0.6 0.7 1.1 1.1 1.5 0.1 0.1 0.3-0.1 0.2-0.2-0.4-0.5-0.8-0.9-1.2-1.4 0.2-0.2 0.3-0.3 0.4-0.5 0.5 0.4 1 0.8 1.6 1.1 0.1 0.1 0.2-0.1 0.2-0.2-0.5-0.4-1-0.8-1.6-1.1 0-0.1 0.1-0.1 0.1-0.2 0.5 0.3 1.2 0.6 1.7 0.8 0.1 0.1 0.2-0.2 0.1-0.2-0.5-0.3-1.1-0.6-1.7-0.8 0.1-0.2 0.1-0.4 0.2-0.7 0.6 0.1 1.2 0.1 1.8 0.1 0 0.4 0 0-0.3 0z" fill="#490500"/> <path d="m119.8 87.7c1.4 0 2.5 1.1 2.5 2.5s-1.1 2.5-2.5 2.5-2.5-1.1-2.5-2.5 1.1-2.5 2.5-2.5z"/> <path d="m118.4 88c0.5 0 1 0.4 1 1s-0.4 1-1 1-1-0.4-1-1 0.4-1 1-1zm3.1 3.6c0.3 0 0.5 0.2 0.5 0.5s-0.2 0.5-0.5 0.5-0.5-0.2-0.5-0.5 0.2-0.5 0.5-0.5z" fill="#fff"/> </g> </g> </g> </g> </svg>